<?xml version="1.0" encoding="UTF-8"?>
<svg version="1.1" xmlns="http://www.w3.org/2000/svg" width="512" height="512">
<path d="M0 0 C3.26701612 2.66358727 6.39330111 5.45632415 9.50390625 8.30078125 C10.303125 9.0175 11.10234375 9.73421875 11.92578125 10.47265625 C23.25289034 21.15709249 31.22417267 34.17323423 37.50390625 48.30078125 C38.22707031 49.89986328 38.22707031 49.89986328 38.96484375 51.53125 C50.78051581 79.78144774 49.75735979 113.27799334 38.81640625 141.55078125 C32.90163585 155.93577959 24.97055595 167.85479591 14.50390625 179.30078125 C13.7871875 180.1 13.07046875 180.89921875 12.33203125 181.72265625 C1.64253838 193.05512614 -11.36968274 201.0066886 -25.49609375 207.30078125 C-27.07777344 208.02394531 -27.07777344 208.02394531 -28.69140625 208.76171875 C-51.85266543 218.53565165 -80.31169592 219.79116278 -104.49609375 213.30078125 C-98.82118751 226.03178785 -92.35588406 238.08158733 -85.18359375 250.03125 C-82.60488505 254.34389445 -80.19764578 258.71050308 -77.87109375 263.1640625 C-77.27385498 264.27499268 -76.67661621 265.38592285 -76.0612793 266.53051758 C-74.91726781 268.66508142 -73.80501065 270.8170582 -72.72973633 272.98706055 C-71.16937939 275.84192162 -69.87556976 278.07799533 -67.49609375 280.30078125 C-63.67765477 281.15725354 -60.33473175 280.95475541 -56.49609375 280.30078125 C-56.19662842 279.51977051 -55.89716309 278.73875977 -55.58862305 277.93408203 C-53.34026278 272.51490576 -49.29693859 268.47684318 -44.43359375 265.30078125 C-37.59833016 262.93472847 -28.50285282 262.91596617 -21.93359375 265.98828125 C-19.37700607 267.50047567 -17.92166959 268.90192282 -15.80859375 271.11328125 C-14.66390625 272.19609375 -14.66390625 272.19609375 -13.49609375 273.30078125 C-11.17089049 272.97004816 -11.17089049 272.97004816 -8.49609375 272.30078125 C-0.12550655 271.69073845 6.38906129 271.60229873 13.50390625 276.30078125 C13.93960937 276.831875 14.3753125 277.36296875 14.82421875 277.91015625 C17.3292464 279.98408612 19.48783293 279.67443512 22.69140625 279.73828125 C31.00439844 280.2365072 35.72722434 282.10018409 41.37890625 288.23828125 C46.61896823 294.36793515 46.956471 299.98511268 46.80859375 307.85546875 C46.11330422 315.7175888 42.45636606 319.85036829 36.6015625 324.85546875 C29.27838418 329.90123407 19.80346913 329.1194735 11.31640625 327.73828125 C8.43316654 327.06975608 8.43316654 327.06975608 5.50390625 328.30078125 C-7.54597472 329.31227139 -7.54597472 329.31227139 -13.05859375 326.17578125 C-16.26417135 323.93274849 -16.26417135 323.93274849 -19.18359375 324.92578125 C-19.94671875 325.37953125 -20.70984375 325.83328125 -21.49609375 326.30078125 C-25.31267674 328.0765525 -28.61814587 328.64948798 -32.80859375 328.92578125 C-33.87722656 329.00054687 -34.94585937 329.0753125 -36.046875 329.15234375 C-36.85511719 329.20132812 -37.66335938 329.2503125 -38.49609375 329.30078125 C-29.95051795 344.3671672 -21.40444313 359.43284277 -12.42089844 374.24414062 C-8.99521841 379.92193438 -5.78600668 385.61748709 -2.859375 391.5625 C2.97820583 404.41110282 2.97820583 404.41110282 13.46875 413.046875 C17.65302594 414.43574528 21.88449475 415.21698875 26.23632812 415.87744141 C32.93214925 417.12750104 39.58016737 420.49123151 43.69140625 425.98828125 C49.45030684 436.51316854 46.50390625 439.85767307 46.50390625 456.30078125 C-111.89609375 456.30078125 -270.29609375 456.30078125 -433.49609375 456.30078125 C-433.49609375 428.05078125 -433.49609375 428.05078125 -425.99609375 419.42578125 C-425.17109375 418.72453125 -424.34609375 418.02328125 -423.49609375 417.30078125 C-422.77421875 416.59953125 -422.05234375 415.89828125 -421.30859375 415.17578125 C-413.74432191 410.13293336 -402.50563747 408.09348201 -393.49609375 408.30078125 C-393.23957031 407.43582031 -392.98304688 406.57085937 -392.71875 405.6796875 C-391.45285186 402.18127889 -389.89518519 399.39755669 -387.93359375 396.23828125 C-387.11803486 394.90732491 -386.3044092 393.575183 -385.4921875 392.2421875 C-385.02538574 391.47664551 -384.55858398 390.71110352 -384.07763672 389.92236328 C-380.82987387 384.5388379 -377.67013573 379.1029731 -374.49609375 373.67578125 C-373.75780008 372.41459179 -373.01943669 371.15344314 -372.28100586 369.89233398 C-370.77034412 367.31220264 -369.2600494 364.73185696 -367.75 362.15136719 C-364.5199013 356.63218111 -361.28513366 351.11573292 -358.05053711 345.59918213 C-356.28218095 342.58317065 -354.5141547 339.56696579 -352.74609375 336.55078125 C-352.03776198 335.342447 -351.32942865 334.13411366 -350.62109375 332.92578125 C-350.27046875 332.32765625 -349.91984375 331.72953125 -349.55859375 331.11328125 C-342.82942708 319.63411458 -336.10026042 308.15494792 -329.37109375 296.67578125 C-328.84520912 295.77867683 -328.84520912 295.77867683 -328.30870056 294.8634491 C-327.6000279 293.65454648 -326.89133851 292.44565367 -326.18263245 291.23677063 C-324.41685399 288.22472727 -322.65136197 285.21251676 -320.88647461 282.19995117 C-317.26410183 276.01750513 -313.63637591 269.83828378 -310 263.6640625 C-305.81340719 256.55377329 -301.64554251 249.43282111 -297.49609375 242.30078125 C-297.00028809 241.45016113 -296.50448242 240.59954102 -295.99365234 239.72314453 C-272.03021541 198.38775588 -256.74291468 153.65181849 -251.01489258 106.20776367 C-250.07812282 99.09161916 -249.22936747 94.40426228 -243.53222656 89.66821289 C-238.97139286 87.61407735 -234.66999005 87.93144187 -229.7265625 88.0078125 C-228.17235344 88.01417976 -228.17235344 88.01417976 -226.58674622 88.02067566 C-223.28542833 88.0374352 -219.98472638 88.07508315 -216.68359375 88.11328125 C-214.44206612 88.12833158 -212.2005289 88.14201937 -209.95898438 88.15429688 C-204.47114489 88.18732977 -198.98366333 88.23750232 -193.49609375 88.30078125 C-193.50833984 87.06811523 -193.52058594 85.83544922 -193.53320312 84.56542969 C-193.51862277 58.0510609 -178.89138225 32.32369909 -161.49609375 13.30078125 C-160.779375 12.5015625 -160.06265625 11.70234375 -159.32421875 10.87890625 C-148.63978251 -0.44820284 -135.62364077 -8.41948517 -121.49609375 -14.69921875 C-119.89701172 -15.42238281 -119.89701172 -15.42238281 -118.265625 -16.16015625 C-80.20172443 -32.08041885 -32.37806739 -25.51961434 0 0 Z " fill="#92C5F4" transform="translate(449.49609375,39.69921875)"/>
<path d="M0 0 C3.26701612 2.66358727 6.39330111 5.45632415 9.50390625 8.30078125 C10.70273437 9.37585937 10.70273437 9.37585937 11.92578125 10.47265625 C23.25289034 21.15709249 31.22417267 34.17323423 37.50390625 48.30078125 C38.22707031 49.89986328 38.22707031 49.89986328 38.96484375 51.53125 C50.78051581 79.78144774 49.75735979 113.27799334 38.81640625 141.55078125 C32.90163585 155.93577959 24.97055595 167.85479591 14.50390625 179.30078125 C13.7871875 180.1 13.07046875 180.89921875 12.33203125 181.72265625 C1.64253838 193.05512614 -11.36968274 201.0066886 -25.49609375 207.30078125 C-26.55054688 207.78289062 -27.605 208.265 -28.69140625 208.76171875 C-50.48475542 217.95840063 -81.98076763 221.61222395 -104.49609375 213.30078125 C-108.5335779 210.27810461 -110.1946431 206.16496022 -112.05859375 201.61328125 C-112.55915283 200.40103882 -112.55915283 200.40103882 -113.06982422 199.16430664 C-122.99021007 174.48010527 -130.96109689 148.91903555 -134.82421875 122.56640625 C-134.93420197 121.81830688 -135.04418518 121.07020752 -135.15750122 120.29943848 C-135.6932536 116.61574991 -136.20360111 112.93097606 -136.67333984 109.23828125 C-136.85640469 107.8893174 -137.03950832 106.54035882 -137.22265625 105.19140625 C-137.37299316 104.00579102 -137.52333008 102.82017578 -137.67822266 101.59863281 C-138.85866377 96.83881233 -140.91708731 93.69280736 -144.58666992 90.45776367 C-149.02395666 88.69320029 -153.31183253 88.81992434 -158.046875 88.7890625 C-159.06081833 88.7711113 -160.07476166 88.7531601 -161.11943054 88.73466492 C-164.34910967 88.68060279 -167.57864132 88.64667881 -170.80859375 88.61328125 C-173.00197362 88.58010462 -175.19533405 88.54561464 -177.38867188 88.50976562 C-182.75768026 88.42487879 -188.12670782 88.35651154 -193.49609375 88.30078125 C-193.77647355 60.07834088 -180.16778307 33.71952922 -161.49609375 13.30078125 C-160.779375 12.5015625 -160.06265625 11.70234375 -159.32421875 10.87890625 C-148.63978251 -0.44820284 -135.62364077 -8.41948517 -121.49609375 -14.69921875 C-120.43003906 -15.18132813 -119.36398437 -15.6634375 -118.265625 -16.16015625 C-80.20172443 -32.08041885 -32.37806739 -25.51961434 0 0 Z " fill="#D94C3F" transform="translate(449.49609375,39.69921875)"/>
<path d="M0 0 C4.13929981 3.37948313 7.53695301 7.32660353 11.06591797 11.32446289 C16.93334915 17.82224292 23.81222838 22.01747988 32.7127533 22.47529602 C33.8193782 22.48514023 34.92600311 22.49498444 36.06616211 22.50512695 C37.95479225 22.52437981 37.95479225 22.52437981 39.88157654 22.54402161 C41.25568239 22.55219511 42.62979276 22.55963766 44.00390625 22.56640625 C44.70112856 22.57048178 45.39835087 22.5745573 46.11670113 22.57875633 C49.81453272 22.599598 53.51232753 22.61390213 57.21020508 22.62329102 C60.99582625 22.63428986 64.78084894 22.66861797 68.56626034 22.70846272 C71.50487718 22.73485735 74.44335709 22.74300332 77.38208199 22.74657249 C78.77529456 22.75138792 80.16850318 22.76285421 81.56159782 22.78161049 C98.12847749 22.99061477 109.28804176 18.585881 121.8515625 8.203125 C131.54873548 0.31568881 141.49952718 -1.70003757 153.8515625 -0.671875 C161.33790128 1.15938404 167.42406507 4.33889773 173.234375 9.40625 C182.10089586 17.03499444 191.57220341 22.32756153 203.453125 22.5390625 C296.58000844 24.70402218 296.58000844 24.70402218 318.6484375 47.15625 C326.16910634 57.21197575 322.8515625 65.00980093 322.8515625 79.328125 C164.4515625 79.328125 6.0515625 79.328125 -157.1484375 79.328125 C-157.1484375 51.078125 -157.1484375 51.078125 -149.6484375 42.453125 C-148.8234375 41.751875 -147.9984375 41.050625 -147.1484375 40.328125 C-146.065625 39.27625 -146.065625 39.27625 -144.9609375 38.203125 C-135.09948078 31.62882052 -120.4783711 31.01772715 -109.02148438 28.95849609 C-89.99565568 25.93555481 -89.99565568 25.93555481 -73.8984375 16.078125 C-73.08761719 15.30210937 -72.27679688 14.52609375 -71.44140625 13.7265625 C-69.26764012 11.45281053 -67.23546611 9.10956266 -65.2109375 6.703125 C-48.42351081 -12.57381988 -20.47316283 -13.57010793 0 0 Z " fill="#4596EC" transform="translate(173.1484375,416.671875)"/>
<path d="M0 0 C1.34726166 -0.01029488 1.34726166 -0.01029488 2.72174072 -0.02079773 C5.68517957 -0.03907075 8.64808926 -0.03522746 11.61157227 -0.02954102 C13.67513705 -0.0341026 15.7387003 -0.03940811 17.80226135 -0.04542542 C22.12556126 -0.05435754 26.44867646 -0.05193221 30.77197266 -0.04199219 C36.30811174 -0.03050305 41.84361295 -0.05071291 47.37966824 -0.07990932 C51.6408136 -0.09826882 55.90180604 -0.09797933 60.16298103 -0.0922718 C62.20389768 -0.09211856 64.24482466 -0.09816575 66.28570366 -0.11056328 C69.1413952 -0.12546635 71.99590748 -0.11480105 74.8515625 -0.09765625 C75.6917543 -0.10732422 76.53194611 -0.11699219 77.39759827 -0.12695312 C82.7313491 -0.06000959 85.75592428 0.87314332 89.99047852 4.40405273 C93.4166359 8.61222817 94.58617964 11.94978573 95.26391602 17.29467773 C95.39681282 18.27380882 95.39681282 18.27380882 95.53239441 19.27272034 C95.7220958 20.67090285 95.90572882 22.06992003 96.08377075 23.46963501 C96.56656472 27.21331493 97.1165593 30.94704428 97.66625977 34.68139648 C97.77636887 35.43172653 97.88647797 36.18205658 97.99992371 36.9551239 C100.61213878 54.48497558 105.37086155 71.23782165 110.92797852 88.02905273 C111.17492462 88.77869293 111.42187073 89.52833313 111.67630005 90.3006897 C114.62193859 99.18131314 117.8380692 107.80776707 121.89768982 116.24795532 C124.0353847 120.84596802 124.0353847 120.84596802 123.8112793 123.63110352 C122.28184976 126.93470771 120.31579413 129.87748327 118.30297852 132.90405273 C117.88081055 133.56791992 117.45864258 134.23178711 117.02368164 134.91577148 C113.90384125 139.63082439 110.6072701 143.49985484 104.86547852 144.93530273 C99.79346894 144.85076924 96.78671844 144.03523875 92.99047852 140.40405273 C88.3439388 133.05429822 85.43229559 124.7036412 82.52587891 116.5480957 C80.98269566 112.35952074 79.69423672 109.14861458 75.99047852 106.40405273 C73.8318827 105.57369804 73.8318827 105.57369804 71.55297852 105.40405273 C70.81176758 105.30092773 70.07055664 105.19780273 69.30688477 105.09155273 C65.86166443 105.55633794 64.44803251 106.96970602 61.99047852 109.40405273 C61.06848834 112.05232636 60.45885411 114.32752983 59.96313477 117.05249023 C59.80881989 117.80974899 59.654505 118.56700775 59.49551392 119.34721375 C58.99597634 121.82117476 58.52467233 124.2996472 58.05297852 126.77905273 C57.71157899 128.48964686 57.3682185 130.19985072 57.02294922 131.90966797 C55.98683668 137.0696559 54.98524245 142.23595708 53.99047852 147.40405273 C53.69148334 148.9527487 53.39233575 150.50141525 53.09301758 152.05004883 C52.95180984 152.78088684 52.81060211 153.51172485 52.66511536 154.26470947 C52.25885527 156.36125362 51.84951984 158.457176 51.43945312 160.55297852 C50.94234686 163.10784015 50.45569806 165.66476508 49.98095703 168.22387695 C49.65115845 169.93921631 49.65115845 169.93921631 49.31469727 171.68920898 C49.1299585 172.67800049 48.94521973 173.66679199 48.75488281 174.68554688 C47.48339752 179.20742126 45.90857369 181.79198928 41.99047852 184.40405273 C37.91741315 184.85661555 35.72436513 184.8443847 32.17797852 182.71655273 C28.11615203 178.42262188 27.49081634 173.34013413 26.61767578 167.66381836 C26.49540619 166.90058762 26.3731366 166.13735687 26.24716187 165.35099792 C25.98333374 163.70031266 25.72209279 162.04921223 25.46316719 160.39775085 C25.05246786 157.78217324 24.63370036 155.16800418 24.21263123 152.55407715 C23.01711707 145.12424522 21.83500359 137.69231394 20.66113281 130.2590332 C19.94163006 125.70658892 19.21176606 121.1559026 18.47559929 116.60612488 C18.19767768 114.87485205 17.92380207 113.14292461 17.65408516 111.41035461 C17.27663252 108.98666991 16.88610055 106.56542281 16.49267578 104.14428711 C16.3850441 103.43141037 16.27741241 102.71853363 16.16651917 101.98405457 C15.37137506 97.20844833 14.23847519 93.09005024 10.24047852 90.09155273 C6.96941671 89.09206163 4.39305263 89.04588704 0.99047852 89.40405273 C-3.92643975 92.45526096 -5.79410089 96.25546514 -8.15405273 101.31811523 C-8.71427376 102.47263687 -8.71427376 102.47263687 -9.28581238 103.65048218 C-10.87247545 106.92106614 -12.43060214 110.20498618 -13.99023438 113.48852539 C-21.99923832 130.27394362 -30.43248987 143.89288542 -48.72045898 150.71264648 C-53.57561416 152.17913533 -57.93468492 152.50355933 -63.00952148 152.40405273 C-62.42106496 148.70277624 -61.38940239 145.87453269 -59.60327148 142.58764648 C-59.11149414 141.67023682 -58.6197168 140.75282715 -58.11303711 139.80761719 C-57.58387695 138.82881592 -57.0547168 137.85001465 -56.50952148 136.84155273 C-39.46616335 104.5373297 -27.00524132 69.93371132 -21.68530273 33.68139648 C-21.57507278 32.93255692 -21.46484283 32.18371735 -21.35127258 31.41218567 C-20.81414613 27.72510848 -20.30218623 24.03704492 -19.83203125 20.34082031 C-19.64904096 18.99210153 -19.4660184 17.64338713 -19.28295898 16.29467773 C-19.13262207 15.1090625 -18.98228516 13.92344727 -18.82739258 12.7019043 C-17.66599795 8.01888382 -15.73066198 4.76926092 -11.93305969 1.75700378 C-7.8955428 -0.11147281 -4.39863406 -0.02351072 0 0 Z " fill="#EDEDED" transform="translate(218.009521484375,127.595947265625)"/>
<path d="M0 0 C4.13929981 3.37948313 7.53695301 7.32660353 11.06591797 11.32446289 C16.81878743 17.69537362 23.60642614 21.93179345 32.34466553 22.48634338 C33.27732239 22.50188766 34.20997925 22.51743195 35.17089844 22.53344727 C36.23169617 22.55339249 37.2924939 22.57333771 38.38543701 22.59388733 C39.52410217 22.61059982 40.66276733 22.62731232 41.8359375 22.64453125 C43.59203339 22.6757029 43.59203339 22.6757029 45.38360596 22.70750427 C49.12286519 22.77288128 52.86219455 22.83182991 56.6015625 22.890625 C59.136726 22.93382147 61.67188241 22.97743612 64.20703125 23.02148438 C70.4218009 23.12855059 76.63664028 23.2303391 82.8515625 23.328125 C72.09543037 34.19208803 59.42651775 41.95729365 46.39477539 49.79589844 C44.70911364 50.8114704 43.02850825 51.83548611 41.35327148 52.86816406 C35.48522007 56.46171887 29.50245795 59.62462829 23.2890625 62.578125 C22.31614258 63.0426709 21.34322266 63.5072168 20.34082031 63.98583984 C-12.56993976 79.45755964 -12.56993976 79.45755964 -22.82414246 79.44837952 C-24.5973008 79.45044151 -24.5973008 79.45044151 -26.40628052 79.45254517 C-27.70459808 79.44894989 -29.00291565 79.44535461 -30.34057617 79.44165039 C-31.72031146 79.44136834 -33.1000469 79.44152659 -34.4797821 79.4420929 C-38.22743193 79.44238019 -41.97504985 79.43649437 -45.72269225 79.42951894 C-49.63847553 79.42327416 -53.55425951 79.42268071 -57.470047 79.42149353 C-64.88605771 79.41838354 -72.3020537 79.41017461 -79.71805793 79.40014404 C-88.16052833 79.38897261 -96.60299942 79.38346985 -105.04547536 79.37844861 C-122.41313793 79.36799173 -139.78078616 79.3503987 -157.1484375 79.328125 C-157.29557811 75.53687753 -157.38311577 71.74637846 -157.4609375 67.953125 C-157.50283203 66.89222656 -157.54472656 65.83132813 -157.58789062 64.73828125 C-157.72581542 55.74558482 -155.57883125 49.27307782 -149.6484375 42.453125 C-148.8234375 41.751875 -147.9984375 41.050625 -147.1484375 40.328125 C-146.065625 39.27625 -146.065625 39.27625 -144.9609375 38.203125 C-135.09948078 31.62882052 -120.4783711 31.01772715 -109.02148438 28.95849609 C-89.99565568 25.93555481 -89.99565568 25.93555481 -73.8984375 16.078125 C-73.08761719 15.30210937 -72.27679688 14.52609375 -71.44140625 13.7265625 C-69.26764012 11.45281053 -67.23546611 9.10956266 -65.2109375 6.703125 C-48.42351081 -12.57381988 -20.47316283 -13.57010793 0 0 Z " fill="#5BA5EF" transform="translate(173.1484375,416.671875)"/>
<path d="M0 0 C1.6015625 1.2265625 1.6015625 1.2265625 4.2890625 4.0390625 C5.0521875 4.7609375 5.8153125 5.4828125 6.6015625 6.2265625 C8.92676576 5.89582941 8.92676576 5.89582941 11.6015625 5.2265625 C19.9721497 4.6165197 26.48671754 4.52807998 33.6015625 9.2265625 C34.03726563 9.75765625 34.47296875 10.28875 34.921875 10.8359375 C37.42690265 12.90986737 39.58548918 12.60021637 42.7890625 12.6640625 C51.10205469 13.16228845 55.82488059 15.02596534 61.4765625 21.1640625 C66.71662448 27.2937164 67.05412725 32.91089393 66.90625 40.78125 C66.21096047 48.64337005 62.55402231 52.77614954 56.69921875 57.78125 C49.37604043 62.82701532 39.90112538 62.04525475 31.4140625 60.6640625 C28.53082279 59.99553733 28.53082279 59.99553733 25.6015625 61.2265625 C12.55168153 62.23805264 12.55168153 62.23805264 7.0390625 59.1015625 C3.8334849 56.85852974 3.8334849 56.85852974 0.9140625 57.8515625 C0.1509375 58.3053125 -0.6121875 58.7590625 -1.3984375 59.2265625 C-8.38340368 62.61433269 -17.0546933 61.88970395 -24.5859375 60.6640625 C-27.46917721 59.99553733 -27.46917721 59.99553733 -30.3984375 61.2265625 C-38.29941069 61.83896322 -45.95680998 62.40003964 -52.3984375 57.2265625 C-57.44364972 52.42207611 -61.00406745 48.06479195 -61.734375 40.95703125 C-61.82826954 32.44079677 -61.5161663 26.55060756 -55.52734375 20.26171875 C-49.25049938 14.459494 -44.84044256 12.94039284 -36.3984375 13.2265625 C-36.2128125 12.5665625 -36.0271875 11.9065625 -35.8359375 11.2265625 C-33.20958371 5.74547634 -29.41724357 1.54496646 -24.3359375 -1.7734375 C-16.70454112 -4.41507471 -6.9809874 -4.12917978 0 0 Z " fill="#BCE3FA" transform="translate(77.3984375,170.7734375)"/>
<path d="M0 0 C1.6015625 1.2265625 1.6015625 1.2265625 4.2890625 4.0390625 C5.0521875 4.7609375 5.8153125 5.4828125 6.6015625 6.2265625 C8.92676576 5.89582941 8.92676576 5.89582941 11.6015625 5.2265625 C19.9721497 4.6165197 26.48671754 4.52807998 33.6015625 9.2265625 C34.03726563 9.75765625 34.47296875 10.28875 34.921875 10.8359375 C37.42690265 12.90986737 39.58548918 12.60021637 42.7890625 12.6640625 C51.10205469 13.16228845 55.82488059 15.02596534 61.4765625 21.1640625 C66.71662448 27.2937164 67.05412725 32.91089393 66.90625 40.78125 C66.21096047 48.64337005 62.55402231 52.77614954 56.69921875 57.78125 C49.37604043 62.82701532 39.90112538 62.04525475 31.4140625 60.6640625 C28.53082279 59.99553733 28.53082279 59.99553733 25.6015625 61.2265625 C12.55168153 62.23805264 12.55168153 62.23805264 7.0390625 59.1015625 C3.8334849 56.85852974 3.8334849 56.85852974 0.9140625 57.8515625 C0.1509375 58.3053125 -0.6121875 58.7590625 -1.3984375 59.2265625 C-5.51294153 61.22545276 -8.90595 61.49604908 -13.4609375 61.4765625 C-15.27271484 61.48429687 -15.27271484 61.48429687 -17.12109375 61.4921875 C-20.26237119 61.23759052 -21.68080571 60.61156543 -24.3984375 59.2265625 C-26.44894483 59.41632857 -26.44894483 59.41632857 -28.5234375 60.1015625 C-35.7916754 61.9156383 -42.74545827 62.51794901 -49.4453125 58.69140625 C-54.9059855 54.5959015 -60.29216198 49.1407845 -61.3984375 42.2265625 C-62.08280446 35.07382393 -61.9177076 29.05012827 -57.3984375 23.2265625 C-47.84462357 13.39129415 -47.84462357 13.39129415 -42.35546875 13.12890625 C-41.64777344 13.14050781 -40.94007813 13.15210938 -40.2109375 13.1640625 C-38.32375 13.195 -38.32375 13.195 -36.3984375 13.2265625 C-36.2128125 12.5665625 -36.0271875 11.9065625 -35.8359375 11.2265625 C-33.20958371 5.74547634 -29.41724357 1.54496646 -24.3359375 -1.7734375 C-16.70454112 -4.41507471 -6.9809874 -4.12917978 0 0 Z " fill="#BCE3FA" transform="translate(429.3984375,306.7734375)"/>
</svg>
