<?xml version="1.0" encoding="UTF-8"?>
<svg version="1.1" xmlns="http://www.w3.org/2000/svg" width="512" height="512">
<path d="M0 0 C1.01790619 0.00215515 2.03581238 0.0043103 3.08456421 0.00653076 C17.69363523 0.05620146 32.02575853 0.30709809 46.375 3.3125 C47.34985352 3.51117676 48.32470703 3.70985352 49.32910156 3.91455078 C97.7109774 14.03517194 141.69928269 35.9516877 177.375 70.3125 C178.3640332 71.26068604 178.3640332 71.26068604 179.37304688 72.22802734 C188.86130305 81.37247479 197.6012044 90.66984009 205.375 101.3125 C206.23306152 102.46355017 207.09113451 103.61459177 207.94921875 104.765625 C213.98736829 112.95680614 219.34595521 121.47054105 224.375 130.3125 C224.73948242 130.94430176 225.10396484 131.57610352 225.47949219 132.22705078 C247.08534998 169.97532572 256.85198095 212.74189997 256.6875 255.9375 C256.68534485 256.95540619 256.6831897 257.97331238 256.68096924 259.02206421 C256.63129854 273.63113523 256.38040191 287.96325853 253.375 302.3125 C253.07698486 303.77478027 253.07698486 303.77478027 252.77294922 305.26660156 C242.65232806 353.6484774 220.7358123 397.63678269 186.375 433.3125 C185.74287598 433.97185547 185.11075195 434.63121094 184.45947266 435.31054688 C175.31502521 444.79880305 166.01765991 453.5387044 155.375 461.3125 C154.22394983 462.17056152 153.07290823 463.02863451 151.921875 463.88671875 C143.73224019 469.92427396 135.22961724 475.30707302 126.375 480.3125 C125.66778809 480.7146875 124.96057617 481.116875 124.23193359 481.53125 C101.09654164 494.5566741 75.92537591 503.30551461 49.9375 508.625 C49.21860596 508.77235596 48.49971191 508.91971191 47.7590332 509.0715332 C33.08339502 511.86090125 18.55831162 512.66142619 3.64770508 512.62817383 C0.70811513 512.6250221 -2.2304558 512.64854926 -5.16992188 512.67382812 C-18.54306192 512.71848737 -31.43916711 511.51301542 -44.625 509.3125 C-46.33055054 509.03031616 -46.33055054 509.03031616 -48.07055664 508.74243164 C-91.33802759 500.97044532 -132.38793216 480.98345309 -165.625 452.3125 C-166.37007813 451.67828125 -167.11515625 451.0440625 -167.8828125 450.390625 C-181.38779833 438.57948485 -194.05918743 425.82889772 -204.625 411.3125 C-205.48149066 410.16255169 -206.33826433 409.01281411 -207.1953125 407.86328125 C-213.23534209 399.67315742 -218.61867614 391.16870382 -223.625 382.3125 C-224.0271875 381.60528809 -224.429375 380.89807617 -224.84375 380.16943359 C-237.8691741 357.03404164 -246.61801461 331.86287591 -251.9375 305.875 C-252.08485596 305.15610596 -252.23221191 304.43721191 -252.3840332 303.6965332 C-255.35789088 288.05024391 -255.99800362 272.57681954 -255.9375 256.6875 C-255.93534485 255.66959381 -255.9331897 254.65168762 -255.93096924 253.60293579 C-255.88129854 238.99386477 -255.63040191 224.66174147 -252.625 210.3125 C-252.42632324 209.33764648 -252.22764648 208.36279297 -252.02294922 207.35839844 C-241.90232806 158.9765226 -219.9858123 114.98821731 -185.625 79.3125 C-184.99287598 78.65314453 -184.36075195 77.99378906 -183.70947266 77.31445312 C-174.56502521 67.82619695 -165.26765991 59.0862956 -154.625 51.3125 C-153.47394983 50.45443848 -152.32290823 49.59636549 -151.171875 48.73828125 C-142.98224019 42.70072604 -134.47961724 37.31792698 -125.625 32.3125 C-124.91778809 31.9103125 -124.21057617 31.508125 -123.48193359 31.09375 C-100.34654164 18.0683259 -75.17537591 9.31948539 -49.1875 4 C-48.46860596 3.85264404 -47.74971191 3.70528809 -47.0090332 3.5534668 C-31.36274391 0.57960912 -15.88931954 -0.06050362 0 0 Z " fill="#3A559F" transform="translate(255.625,-0.3125)"/>
<path d="M0 0 C1.0658432 -0.00570007 2.1316864 -0.01140015 3.22982788 -0.01727295 C5.47384661 -0.02668425 7.71787893 -0.03324146 9.96191406 -0.03710938 C13.39412233 -0.04686274 16.82574328 -0.0779422 20.2578125 -0.109375 C22.44270479 -0.11590131 24.62760135 -0.12115324 26.8125 -0.125 C27.83654938 -0.1373468 28.86059875 -0.1496936 29.91567993 -0.16241455 C38.86818165 -0.13437064 38.86818165 -0.13437064 42.7734375 3.203125 C43.92768481 5.51161963 43.9298412 6.91079184 43.98217773 9.48168945 C44.00146835 10.36633377 44.02075897 11.25097809 44.04063416 12.16242981 C44.09833428 16.21005216 44.14764741 20.25749617 44.1784668 24.30541992 C44.20006127 26.44034994 44.23418106 28.5751911 44.28100586 30.7097168 C44.34791608 33.78734886 44.37545047 36.86315002 44.39453125 39.94140625 C44.42236191 40.89364578 44.45019257 41.84588531 44.47886658 42.82698059 C44.45931989 49.12601708 44.45931989 49.12601708 42.67417908 51.92939758 C39.49837466 54.96333484 36.29202935 55.7763062 31.98820496 55.81947327 C31.28182388 55.8029924 30.57544281 55.78651154 29.84765625 55.76953125 C29.10062943 55.77516586 28.3536026 55.78080048 27.5839386 55.78660583 C25.2089573 55.8029769 22.83585178 55.78760377 20.4609375 55.765625 C4.79340356 55.23554583 4.79340356 55.23554583 -8.6015625 62.390625 C-12.82830993 69.70614939 -13.68281105 76.81311723 -13.73828125 85.14453125 C-13.76520805 86.65695656 -13.76520805 86.65695656 -13.79267883 88.19993591 C-13.84642379 91.38845767 -13.88056223 94.57683286 -13.9140625 97.765625 C-13.94726719 99.94077545 -13.98175973 102.11590664 -14.01757812 104.29101562 C-14.10212913 109.5949205 -14.17062892 114.89884522 -14.2265625 120.203125 C-13.56337006 120.19202194 -12.90017761 120.18091888 -12.21688843 120.16947937 C-5.30635055 120.05875135 1.60393481 119.98340132 8.51513672 119.9284668 C11.09336587 119.9033426 13.67152393 119.86923741 16.24951172 119.82592773 C19.95818636 119.76518836 23.66591825 119.73689303 27.375 119.71484375 C28.52521637 119.68903732 29.67543274 119.6632309 30.86050415 119.63664246 C39.80552471 119.63351649 39.80552471 119.63351649 43.51611328 122.44995117 C45.8606401 125.30948274 46.51656521 126.14749598 46.2890625 129.7421875 C46.20688477 131.18319824 46.20688477 131.18319824 46.12304688 132.65332031 C46.00767578 133.82475586 45.89230469 134.99619141 45.7734375 136.203125 C45.70648682 136.92334839 45.63953613 137.64357178 45.57055664 138.38562012 C45.08158559 143.55060906 44.49389433 148.69945606 43.85693359 153.84814453 C43.5218574 156.59105958 43.21189908 159.33613366 42.90234375 162.08203125 C42.68903125 163.83872828 42.47424 165.59524652 42.2578125 167.3515625 C42.16908875 168.16619965 42.08036499 168.98083679 41.98895264 169.82015991 C41.35285403 174.69565357 40.39704949 177.62043318 36.7734375 181.203125 C34.33376253 182.42296248 32.77439226 182.32364027 30.04833984 182.31665039 C29.06747406 182.31657486 28.08660828 182.31649933 27.07601929 182.31642151 C26.01452667 182.31126022 24.95303406 182.30609894 23.859375 182.30078125 C22.23221054 182.29865883 22.23221054 182.29865883 20.57217407 182.29649353 C17.0975675 182.29088302 13.62302469 182.27832872 10.1484375 182.265625 C7.79687593 182.26061135 5.44531335 182.25604821 3.09375 182.25195312 C-2.67970936 182.24091018 -8.45313138 182.22416179 -14.2265625 182.203125 C-14.22287533 182.89003796 -14.21918816 183.57695091 -14.21538925 184.28467941 C-14.12708002 200.9931405 -14.06087336 217.70152774 -14.01931381 234.41016769 C-13.99868209 242.49032722 -13.97055 250.57033104 -13.92480469 258.65039062 C-13.8849554 265.69237981 -13.85913412 272.73425623 -13.85020852 279.77635503 C-13.84499047 283.50569569 -13.83271399 287.23471377 -13.80364227 290.96395111 C-13.77146288 295.12552749 -13.77060185 299.28654184 -13.77246094 303.44824219 C-13.75807983 304.68686005 -13.74369873 305.92547791 -13.72888184 307.20162964 C-13.73438049 308.33462494 -13.73987915 309.46762024 -13.74554443 310.63494873 C-13.74185726 311.61942364 -13.73817009 312.60389854 -13.73437119 313.61820602 C-14.36705339 316.94096321 -15.61029584 318.12732453 -18.2265625 320.203125 C-20.66151428 320.71105957 -20.66151428 320.71105957 -23.40649414 320.72070312 C-24.43758804 320.73331177 -25.46868195 320.74592041 -26.53102112 320.75891113 C-27.63840134 320.75081421 -28.74578156 320.74271729 -29.88671875 320.734375 C-31.59884804 320.74011536 -31.59884804 320.74011536 -33.3455658 320.74597168 C-35.75716026 320.74869253 -38.16878416 320.74131935 -40.58032227 320.72460938 C-44.27882373 320.70318431 -47.97538678 320.72441717 -51.67382812 320.75 C-54.0156293 320.74735714 -56.35742927 320.74223304 -58.69921875 320.734375 C-59.8086232 320.74247192 -60.91802765 320.75056885 -62.06105042 320.75891113 C-63.60296303 320.73999817 -63.60296303 320.73999817 -65.17602539 320.72070312 C-66.08107315 320.71752075 -66.98612091 320.71433838 -67.91859436 320.71105957 C-70.2265625 320.203125 -70.2265625 320.203125 -71.84826279 318.51939011 C-73.54295965 315.67141215 -73.59660161 313.9370485 -73.58732605 310.63494873 C-73.59145004 309.50195343 -73.59557404 308.36895813 -73.599823 307.20162964 C-73.58903717 305.96301178 -73.57825134 304.72439392 -73.56713867 303.44824219 C-73.56779579 301.48689835 -73.56779579 301.48689835 -73.56846619 299.4859314 C-73.56932689 295.90351408 -73.55168928 292.32139814 -73.53074431 288.73905087 C-73.51198987 284.99411993 -73.51022805 281.24918208 -73.50666809 277.50421143 C-73.49734399 270.41400135 -73.47272531 263.32393006 -73.44261962 256.2337811 C-73.40908694 248.16131013 -73.39259246 240.08883254 -73.37753332 232.01630926 C-73.34617603 215.41183327 -73.2934085 198.80749684 -73.2265625 182.203125 C-74.32121826 182.22407227 -75.41587402 182.24501953 -76.54370117 182.26660156 C-80.6156703 182.33915209 -84.68758261 182.38497909 -88.76000977 182.42285156 C-90.52052425 182.44293286 -92.28097232 182.47020379 -94.04125977 182.50488281 C-96.57585052 182.55355612 -99.10955745 182.57612805 -101.64453125 182.59375 C-102.42805466 182.61439514 -103.21157806 182.63504028 -104.0188446 182.65631104 C-107.80724112 182.65785693 -109.9755703 182.36343362 -113.20043945 180.30371094 C-116.16183174 177.23348329 -116.360841 175.53142689 -116.43530273 171.3737793 C-116.45459335 170.36901047 -116.47388397 169.36424164 -116.49375916 168.32902527 C-116.55139955 163.73183691 -116.60076984 159.13480656 -116.6315918 154.53735352 C-116.6531924 152.11142764 -116.68731903 149.68558013 -116.73413086 147.26000977 C-116.80098198 143.7654331 -116.82856716 140.27246884 -116.84765625 136.77734375 C-116.87548691 135.69386154 -116.90331757 134.61037933 -116.93199158 133.49406433 C-116.91247615 126.36016524 -116.91247615 126.36016524 -115.15380859 123.39353943 C-111.80054461 120.13519881 -108.33718675 119.63438175 -103.9055481 119.63664246 C-103.12718597 119.66244888 -102.34882385 119.68825531 -101.546875 119.71484375 C-100.32772903 119.72545586 -100.32772903 119.72545586 -99.08395386 119.73628235 C-96.50552627 119.76411826 -93.92932588 119.82683089 -91.3515625 119.890625 C-89.59638568 119.91572209 -87.84117459 119.93853279 -86.0859375 119.95898438 C-81.79863003 120.01390877 -77.51297294 120.10010153 -73.2265625 120.203125 C-73.23322433 119.56213867 -73.23988617 118.92115234 -73.24674988 118.26074219 C-73.31379123 111.5107939 -73.35864451 104.76094214 -73.39135742 98.01074219 C-73.40632356 95.5009374 -73.42670372 92.99115821 -73.45288086 90.48144531 C-73.71234736 64.94180161 -72.15890951 39.49080522 -53.4765625 19.890625 C-38.4180958 5.6547756 -20.29734939 0.08456978 0 0 Z " fill="#FEFEFE" transform="translate(291.2265625,95.796875)"/>
</svg>
