<?xml version="1.0" encoding="UTF-8"?>
<svg version="1.1" xmlns="http://www.w3.org/2000/svg" width="512" height="512">
<path d="M0 0 C1.23056122 -0.00571014 2.46112244 -0.01142029 3.72897339 -0.01730347 C5.09011831 -0.01854878 6.45126334 -0.01967389 7.81240845 -0.02069092 C9.24839403 -0.02532136 10.68437839 -0.03034632 12.12036133 -0.03573608 C16.02176604 -0.04884814 19.92315355 -0.05530376 23.82457685 -0.05974674 C26.26700158 -0.06268194 28.70942165 -0.06678778 31.15184402 -0.07125092 C38.80743302 -0.0849283 46.46301133 -0.09459141 54.11861169 -0.09845281 C62.9286383 -0.10292168 71.73850883 -0.12041385 80.54848802 -0.1494534 C87.37336264 -0.17116053 94.19819367 -0.18116203 101.0231024 -0.18249393 C105.09132304 -0.18353635 109.15939703 -0.18932196 113.22758102 -0.20731354 C117.06406087 -0.22394907 120.90028636 -0.22587582 124.7367897 -0.21717453 C126.13384438 -0.21641211 127.5309136 -0.22063993 128.92793274 -0.23063278 C146.85714373 -0.35120384 162.55053215 3.09101344 175.7562561 15.81231689 C187.21015266 27.72596846 193.09414966 42.8978517 199.31802368 57.98272705 C203.38895582 68.1930747 203.38895582 68.1930747 210.5333395 76.23566628 C214.26245479 77.60654858 217.98354346 77.41345332 221.90544128 77.39199829 C222.81581349 77.39496843 223.72618569 77.39793857 224.66414493 77.40099871 C227.72168633 77.40865114 230.77903632 77.40213945 233.83657837 77.39581299 C236.0261905 77.39856238 238.21580162 77.40224196 240.40541077 77.40678406 C245.12532968 77.41490389 249.8452012 77.41706249 254.56512642 77.41483688 C262.03300477 77.41200627 269.50078832 77.42634757 276.96864319 77.44381714 C287.44414802 77.46702345 297.91964943 77.48613444 308.39517212 77.49884033 C309.05992241 77.4996507 309.7246727 77.50046107 310.40956693 77.501296 C319.83082515 77.51250335 329.25207746 77.51779535 338.67334145 77.52068312 C339.3359694 77.52088711 339.99859735 77.5210911 340.68130493 77.52130127 C341.67402995 77.52160117 341.67402995 77.52160117 342.68681002 77.52190714 C353.74420664 77.5256471 364.80151118 77.54501252 375.85886329 77.57639563 C383.27712141 77.59658874 390.69510335 77.59898952 398.11337769 77.58811545 C402.73885319 77.58550238 407.36416903 77.5995422 411.98960304 77.61819649 C414.12806872 77.62350485 416.26656404 77.622045 418.40501785 77.61316109 C444.14911317 77.51487464 444.14911317 77.51487464 454.33828735 87.20294189 C459.83915052 93.6379139 461.14344152 100.43544881 461.15516663 108.69657898 C461.16279836 110.02304533 461.16279836 110.02304533 461.17058426 111.37630898 C461.18633126 114.35164011 461.19483987 117.32694691 461.20327759 120.30230713 C461.21281448 122.43103694 461.22270557 124.55976518 461.23292542 126.68849182 C461.26433792 133.69198766 461.28458439 140.69549546 461.3031311 147.69903564 C461.30642843 148.89078565 461.30972575 150.08253565 461.31312299 151.31039929 C461.34391173 162.55228909 461.3706178 173.79418155 461.38754177 185.03610134 C461.40943463 199.41010847 461.45137012 213.78374138 461.52097934 228.15759891 C461.56826848 238.26646607 461.59248217 248.37523245 461.59973866 258.48420674 C461.6046886 264.5198738 461.61970722 270.55511932 461.65948296 276.59066582 C461.69644751 282.27480319 461.70472642 287.95828 461.69147682 293.64251518 C461.69153061 295.72254076 461.7017618 297.80259633 461.72322845 299.88251114 C461.92835638 320.89022321 461.92835638 320.89022321 454.99453735 330.14044189 C447.28047421 338.00337082 438.7994942 340.3508422 427.92034912 340.51796532 C424.66502447 340.54539739 421.41055613 340.53490027 418.15518188 340.52139282 C416.33876324 340.52485253 414.5223467 340.5296192 412.70593452 340.53557456 C407.73108418 340.54807111 402.75640701 340.54192025 397.78155613 340.5326159 C392.40997216 340.52582027 387.03841769 340.5363092 381.6668396 340.54455566 C371.15043537 340.55788967 360.6340954 340.55501672 350.11768866 340.54631774 C341.57014279 340.53954031 333.02261492 340.53862474 324.47506714 340.54188919 C323.25815032 340.54234889 322.0412335 340.54280859 320.78744042 340.54328222 C318.31523307 340.5442414 315.84302572 340.54521404 313.37081838 340.54619999 C290.19345738 340.55475291 267.01613199 340.54492127 243.83877683 340.52879889 C223.9551323 340.51539581 204.07154031 340.51772393 184.18789673 340.53155518 C161.09299543 340.5476127 137.99812533 340.55392895 114.90321922 340.54471838 C112.44014868 340.54376275 109.97707812 340.54281963 107.51400757 340.54188919 C106.30215605 340.54142636 105.09030453 340.54096354 103.84173024 340.54048669 C95.30527632 340.53789732 86.76884221 340.54226666 78.23239136 340.54932785 C67.82813936 340.55774494 57.42395525 340.55545825 47.01971102 340.53948562 C41.71216629 340.53160579 36.40473473 340.5285065 31.09719086 340.53843307 C26.23654323 340.54738629 21.37611345 340.54243666 16.51548553 340.52650042 C14.75922731 340.5231553 13.00295062 340.52484063 11.24670434 340.53212778 C-0.46453157 340.57698519 -11.53064397 340.49681214 -20.80523497 332.4172914 C-28.17455242 324.79134115 -29.88906095 315.73230994 -29.74717712 305.51391602 C-29.75442037 304.30057595 -29.76166362 303.08723588 -29.76912636 301.83712792 C-29.78300842 298.5040508 -29.77031492 295.17308256 -29.74583352 291.84020185 C-29.72595415 288.23283135 -29.74097963 284.62557517 -29.7514801 281.01818848 C-29.76654588 273.96639349 -29.74975926 266.91502315 -29.7219292 259.86328098 C-29.69066672 251.64439914 -29.69099064 243.42560734 -29.69244694 235.20667723 C-29.69394626 220.54095482 -29.66653026 205.87542924 -29.62289429 191.20977783 C-29.58060617 176.9896893 -29.55938351 162.76977386 -29.56137085 148.54962158 C-29.56149072 147.6731468 -29.56161059 146.79667201 -29.56173409 145.89363739 C-29.56185515 145.01865255 -29.56197621 144.14366772 -29.56210095 143.24216819 C-29.56417178 127.03237526 -29.54649694 110.82265562 -29.5196413 94.61288647 C-29.51060441 88.88775272 -29.5074041 83.16263247 -29.50604439 77.43749237 C-29.50399542 70.46094834 -29.49056522 63.48452794 -29.46304596 56.50803635 C-29.44922214 52.95055073 -29.44004431 49.3932229 -29.44382858 45.83570862 C-29.4477345 41.97669324 -29.42832913 38.11799391 -29.40660095 34.2590332 C-29.41124676 33.13880068 -29.41589256 32.01856815 -29.42067915 30.86438918 C-29.32832422 20.93881896 -27.06304831 14.45885752 -20.1968689 7.12481689 C-14.27282259 1.76043985 -7.84614912 0.02182229 0 0 Z M169.99453735 112.14044189 C169.34533325 112.45610107 168.69612915 112.77176025 168.0272522 113.09698486 C143.60107194 125.28351838 124.4106908 146.4152257 114.99453735 172.14044189 C105.9086645 200.59600676 106.42217229 230.48180548 120.10391235 257.41387939 C124.30994727 265.30959561 129.12189111 272.37130762 134.99453735 279.14044189 C135.82846608 280.20247465 136.66187808 281.26491356 137.49453735 282.32794189 C155.15830301 302.19967826 182.62112801 314.67756544 209.01211548 316.26153564 C237.64222333 317.55936465 264.15053776 308.82334321 285.99453735 290.14044189 C286.55527954 289.70087158 287.11602173 289.26130127 287.6937561 288.80841064 C307.19434638 273.5047978 319.59618044 246.95171487 322.71328735 222.73419189 C324.88020633 195.0457827 319.50111013 166.99674116 301.99453735 144.70294189 C300.67444589 143.17060044 299.34117153 141.64951055 297.99453735 140.14044189 C297.33195923 139.33606689 296.6693811 138.53169189 295.98672485 137.70294189 C278.86052678 117.48012498 253.27693245 104.80522377 226.99453735 102.14044189 C207.17562998 100.69391805 187.95689576 103.40392322 169.99453735 112.14044189 Z " fill="#0088DB" transform="translate(40.005462646484375,140.85955810546875)"/>
<path d="M0 0 C1.2235934 -0.00322445 2.44718681 -0.00644889 3.7078588 -0.00977105 C5.06253428 -0.00829996 6.41720965 -0.00673225 7.77188492 -0.00507832 C9.21346669 -0.00694668 10.65504796 -0.00924748 12.09662843 -0.01194364 C16.05851278 -0.018065 20.02037604 -0.01792764 23.98226404 -0.01674926 C28.25505684 -0.01654534 32.52784284 -0.02206325 36.80063248 -0.02680683 C45.1723762 -0.035116 53.54411288 -0.0378618 61.91586038 -0.03841921 C68.72106223 -0.03889428 75.52626175 -0.0409486 82.33146286 -0.04411983 C101.62446727 -0.05292745 120.91746612 -0.05753909 140.21047255 -0.05678936 C141.25072948 -0.0567494 142.2909864 -0.05670945 143.36276627 -0.05666828 C144.92505657 -0.05660696 144.92505657 -0.05660696 146.51890829 -0.0565444 C163.3966205 -0.05613799 180.27431038 -0.06570598 197.15201613 -0.07980665 C214.48095964 -0.09417008 231.80989226 -0.10107684 249.13884187 -0.10021287 C258.86807208 -0.09988087 268.5972789 -0.10262927 278.32650375 -0.11339092 C286.61078004 -0.12249552 294.89502234 -0.12467153 303.17930147 -0.1178815 C307.40518103 -0.11461598 311.63099538 -0.11456076 315.85686874 -0.12323475 C319.72826485 -0.13109932 323.59954403 -0.12966875 327.47093728 -0.12095062 C328.86865121 -0.11941553 330.26637386 -0.12123214 331.66407749 -0.12681069 C342.82130579 -0.16837893 351.63063845 -0.1475466 359.9946022 7.90988445 C366.90680246 15.77787994 367.09492794 24.4108557 367.05734634 34.44845867 C367.05749237 35.47345974 367.0576384 36.49846081 367.05778885 37.55452251 C367.05709411 40.93081078 367.04932224 44.30704337 367.0414772 47.68332195 C367.03961147 50.02887218 367.0381883 52.3744228 367.03718948 54.71997356 C367.03337658 60.88487104 367.02355675 67.04974485 367.0124855 73.21463299 C367.00224502 79.50888022 366.99768621 85.80313129 366.99264908 92.09738445 C366.98193339 104.44114483 366.96487168 116.78488767 366.94382095 129.12863445 C338.4935982 129.36213424 310.04351882 129.53852833 281.5925312 129.64675617 C268.38247924 129.69834191 255.17302228 129.76868255 241.9633522 129.88302898 C230.4510872 129.98263481 218.93925303 130.04720078 207.4265691 130.0695194 C201.32920641 130.08256816 195.23307636 130.11327642 189.1361084 130.18593502 C183.39840712 130.2537589 177.66244723 130.27476184 171.92438316 130.25971127 C169.8175822 130.26246489 167.71072369 130.28239215 165.60426903 130.3206892 C149.69414327 130.59578569 149.69414327 130.59578569 145.41457367 127.00857449 C143.78681572 124.38559873 142.83242844 122.07584663 141.94382095 119.12863445 C141.20813915 117.39371363 140.46334255 115.66260144 139.7055397 113.9372282 C139.00910971 112.14881181 138.31783004 110.35838254 137.63132095 108.56613445 C131.44327769 93.06326453 125.08122118 79.78276912 112.94382095 68.12863445 C112.33925064 67.51632977 111.73468033 66.90402508 111.1117897 66.2731657 C99.25484861 55.05090272 82.31870968 52.01738121 66.62399673 51.92331219 C65.59899567 51.91341259 64.5739946 51.90351299 63.51793289 51.89331341 C60.14168963 51.86181374 56.76543232 51.83698664 53.38913345 51.8122282 C51.04357927 51.79164872 48.69802871 51.77065198 46.35248184 51.74925518 C40.18762529 51.69413726 34.02273584 51.64468271 27.85782242 51.59640789 C21.56354225 51.54611773 15.26930968 51.49047092 8.97507095 51.43527508 C-3.36863835 51.32781926 -15.71238904 51.22634646 -28.05617905 51.12863445 C-28.15598982 46.8786148 -28.22808416 42.6292385 -28.27590561 38.37839031 C-28.29586656 36.93621193 -28.32304568 35.49411286 -28.35793686 34.05221844 C-28.59450394 24.01551204 -27.89868541 16.15244139 -21.80617905 7.81613445 C-15.54139305 1.69372996 -8.60059979 0.00573481 0 0 Z " fill="#00B2F4" transform="translate(106.05617904663086,80.87136554718018)"/>
<path d="M0 0 C0.65786225 -0.00205263 1.31572449 -0.00410527 1.99352196 -0.0062201 C4.20140549 -0.01188163 6.40922647 -0.0104339 8.61711597 -0.00901413 C10.21472759 -0.01159825 11.81233857 -0.01461154 13.40994865 -0.01801753 C17.80315965 -0.02608526 22.1963543 -0.02787698 26.58957183 -0.028615 C31.32660191 -0.03046595 36.06362351 -0.03801349 40.80064869 -0.04475021 C51.16019663 -0.05833241 61.5197407 -0.06435807 71.87929606 -0.06876087 C78.34778949 -0.07152346 84.81628141 -0.07576085 91.28477383 -0.08026505 C109.19399611 -0.09245753 127.1032172 -0.10275691 145.01244354 -0.10614014 C146.73180645 -0.10646949 146.73180645 -0.10646949 148.48590397 -0.10680549 C149.63488869 -0.10702377 150.78387342 -0.10724204 151.96767586 -0.10746694 C154.29595705 -0.1079104 156.62423823 -0.10835697 158.95251942 -0.10880661 C160.10742734 -0.10902804 161.26233526 -0.10924947 162.45224039 -0.10947761 C181.16577894 -0.1134256 199.87927856 -0.13087977 218.59280207 -0.15416613 C237.80548104 -0.17788066 257.01814046 -0.19034203 276.23083431 -0.19150805 C287.01813173 -0.19242475 297.80537841 -0.1981758 308.59266186 -0.21632767 C317.77832169 -0.23172999 326.9639151 -0.23684832 336.14958539 -0.22858956 C340.83535061 -0.22468356 345.52098209 -0.22561031 350.20673084 -0.23964691 C354.49949714 -0.25238858 358.79202922 -0.25118597 363.08479521 -0.2390562 C364.63461378 -0.23709967 366.18444895 -0.24017561 367.73424419 -0.24890056 C378.52838921 -0.30580299 388.63414509 0.0345599 397.35315418 7.13142776 C403.38136077 13.29663905 404.61869567 19.13367832 404.54846668 27.59627151 C404.54422184 28.61353065 404.54422184 28.61353065 404.53989124 29.65134048 C404.52880835 31.79072542 404.50372778 33.92967207 404.47815418 36.06892776 C404.46810894 37.53051021 404.45898581 38.99209929 404.45081043 40.45369339 C404.42890843 44.01307756 404.39446285 47.57220979 404.35315418 51.13142776 C400.40048884 49.59707347 397.24586496 47.80275197 393.80627918 45.35017776 C385.75412406 41.34974401 376.78553821 41.84470273 368.02629566 41.87073135 C366.57927355 41.86770718 365.13225303 41.86381636 363.68523532 41.85913879 C359.72675664 41.84888424 355.7683688 41.8510341 351.80988276 41.85531938 C347.53368799 41.85779125 343.25751482 41.84876669 338.98132801 41.84128189 C330.61045579 41.82854543 322.23961567 41.82673991 313.8687354 41.82908215 C307.06269892 41.83086674 300.25667217 41.82911265 293.45063686 41.82485771 C292.48116915 41.82426252 291.51170144 41.82366733 290.51285592 41.82305411 C288.5432315 41.82184233 286.57360708 41.82062819 284.60398266 41.81941173 C266.14066089 41.80854013 247.67735739 41.81069682 229.21403459 41.81679658 C212.33535666 41.82196473 195.45673646 41.81071229 178.57806995 41.79169836 C161.23429129 41.77231073 143.89053993 41.76406563 126.54675037 41.76782161 C116.81467973 41.76973233 107.08265821 41.76725868 97.35059643 41.75310707 C89.06502328 41.74118049 80.77952949 41.73980267 72.49395522 41.75189724 C68.26967361 41.7577771 64.04553708 41.75891016 59.82126522 41.74689484 C55.94796857 41.73600621 52.0749376 41.73917453 48.20165322 41.75315652 C46.80669789 41.75579529 45.41172154 41.75346288 44.0167869 41.74542066 C32.02641901 41.68113645 20.28637951 42.31838036 11.35315418 51.13142776 C1.81515279 61.24614552 0.74151898 73.01543518 0.60315418 86.31892776 C0.52065418 91.20705276 0.43815418 96.09517776 0.35315418 101.13142776 C-9.54684582 101.13142776 -19.44684582 101.13142776 -29.64684582 101.13142776 C-29.7147396 90.70851285 -29.76972995 80.28574585 -29.80228233 69.86265945 C-29.81790924 65.02231476 -29.83909302 60.18212978 -29.87316418 55.34187698 C-29.90586392 50.66696487 -29.92372119 45.99220596 -29.93147755 41.31718826 C-29.93700204 39.53748032 -29.94778994 37.75778034 -29.96403599 35.97813797 C-29.98595167 33.47696978 -29.98880689 30.97642719 -29.98742199 28.47517776 C-29.99820782 27.74653015 -30.00899364 27.01788254 -30.02010632 26.26715469 C-29.97517796 18.72231815 -27.58646978 12.27495718 -22.45543957 6.67049026 C-16.05963982 1.22784426 -8.13257894 0.00865445 0 0 Z " fill="#00C5FC" transform="translate(68.64684581756592,30.868572235107422)"/>
<path d="M0 0 C28.62594051 -0.64626957 54.1636208 10.14976947 75.25390625 29.12109375 C78.31699573 32.18418323 81.16809157 35.15409869 83.26953125 38.9609375 C83.24254794 42.69137993 80.35613947 44.8521895 77.87890625 47.37109375 C77.32452881 47.94883545 76.77015137 48.52657715 76.19897461 49.12182617 C74.5673015 50.80579196 72.91605341 52.46725473 71.25390625 54.12109375 C70.09181641 55.28318359 70.09181641 55.28318359 68.90625 56.46875 C50.07558754 74.17309247 24.29758497 81.9465403 -1.12109375 81.37109375 C-31.43707059 80.09731321 -54.98776938 65.38636412 -75.09375 43.57421875 C-76.74609375 41.12109375 -76.74609375 41.12109375 -76.67578125 39.0390625 C-69.27327696 23.76750954 -48.1209019 12.03896394 -32.6171875 6.40234375 C-21.95162277 2.76084248 -11.26476155 0.49673913 0 0 Z " fill="#0076CD" transform="translate(252.74609375,366.87890625)"/>
<path d="M0 0 C8.65227448 8.42754008 12.52728703 17.7164945 13.16015625 29.6171875 C12.97477455 41.25650966 9.00569623 51.0801933 0.8125 59.37109375 C-7.6691156 66.67957651 -17.66583363 70.39284754 -28.89453125 70.05078125 C-40.06865622 68.83759054 -49.51125544 65.06759766 -57.26953125 56.73828125 C-65.10034155 46.59896618 -67.72977152 35.84765295 -66.42578125 23.22265625 C-64.59298835 12.27980453 -58.86391164 3.7020208 -49.95703125 -2.82421875 C-34.11626885 -13.19271778 -14.57277193 -12.0451053 0 0 Z " fill="#008BDF" transform="translate(282.89453125,277.94921875)"/>
</svg>
