<!-- <?xml version="1.0" encoding="UTF-8"?> -->
<svg id="svgContainer" xmlns="http://www.w3.org/2000/svg" xmlns:xlink="http://www.w3.org/1999/xlink" width="20px" height="20px#b0b0b00 20" version="1.1">
<g id="surface1">
<path style=" stroke:none;fill-rule:nonzero;fill:#b0b0b0;fill-opacity:1;" d="M 5.886719 1.636719 C 5.941406 1.636719 5.941406 1.636719 5.996094 1.636719 C 6.117188 1.632812 6.238281 1.632812 6.359375 1.632812 C 6.449219 1.632812 6.535156 1.632812 6.621094 1.632812 C 6.859375 1.632812 7.097656 1.632812 7.332031 1.632812 C 7.480469 1.632812 7.628906 1.632812 7.777344 1.632812 C 8.191406 1.632812 8.601562 1.632812 9.011719 1.632812 C 9.039062 1.632812 9.066406 1.632812 9.09375 1.632812 C 9.132812 1.632812 9.132812 1.632812 9.171875 1.632812 C 9.226562 1.632812 9.277344 1.632812 9.332031 1.632812 C 9.359375 1.632812 9.386719 1.632812 9.414062 1.632812 C 9.839844 1.632812 10.269531 1.628906 10.695312 1.628906 C 11.136719 1.628906 11.578125 1.628906 12.019531 1.628906 C 12.265625 1.628906 12.511719 1.628906 12.761719 1.628906 C 12.992188 1.625 13.226562 1.625 13.457031 1.625 C 13.542969 1.625 13.628906 1.625 13.714844 1.625 C 14.917969 1.621094 15.984375 1.847656 16.914062 2.65625 C 16.941406 2.675781 16.964844 2.695312 16.992188 2.71875 C 17.796875 3.367188 18.222656 4.402344 18.347656 5.402344 C 18.382812 5.734375 18.375 6.070312 18.375 6.40625 C 18.375 6.492188 18.375 6.578125 18.375 6.667969 C 18.375 6.902344 18.375 7.136719 18.375 7.371094 C 18.375 7.621094 18.375 7.867188 18.375 8.117188 C 18.375 8.558594 18.375 9 18.375 9.441406 C 18.375 9.839844 18.375 10.238281 18.375 10.636719 C 18.375 11.105469 18.375 11.570312 18.375 12.035156 C 18.375 12.28125 18.375 12.527344 18.375 12.773438 C 18.375 13.003906 18.375 13.234375 18.375 13.464844 C 18.375 13.550781 18.375 13.632812 18.375 13.71875 C 18.375 14.359375 18.359375 15.015625 18.117188 15.617188 C 18.105469 15.648438 18.09375 15.679688 18.082031 15.710938 C 17.902344 16.15625 17.660156 16.546875 17.34375 16.914062 C 17.324219 16.941406 17.304688 16.964844 17.28125 16.992188 C 16.632812 17.796875 15.597656 18.222656 14.597656 18.347656 C 14.261719 18.382812 13.925781 18.375 13.59375 18.375 C 13.503906 18.375 13.417969 18.375 13.328125 18.375 C 13.09375 18.375 12.855469 18.375 12.621094 18.375 C 12.371094 18.375 12.125 18.375 11.875 18.375 C 11.460938 18.375 11.042969 18.375 10.628906 18.371094 C 10.199219 18.371094 9.773438 18.371094 9.347656 18.371094 C 8.828125 18.371094 8.3125 18.371094 7.796875 18.371094 C 7.601562 18.371094 7.402344 18.371094 7.207031 18.371094 C 6.976562 18.371094 6.742188 18.371094 6.511719 18.371094 C 6.425781 18.371094 6.34375 18.371094 6.257812 18.371094 C 5.707031 18.371094 5.167969 18.359375 4.632812 18.199219 C 4.605469 18.191406 4.578125 18.183594 4.550781 18.171875 C 3.46875 17.828125 2.59375 17.058594 2.070312 16.058594 C 1.679688 15.273438 1.621094 14.460938 1.625 13.59375 C 1.625 13.507812 1.625 13.421875 1.625 13.332031 C 1.625 13.097656 1.625 12.863281 1.625 12.628906 C 1.625 12.378906 1.625 12.132812 1.625 11.882812 C 1.625 11.441406 1.625 11 1.625 10.558594 C 1.625 10.160156 1.625 9.761719 1.625 9.363281 C 1.625 8.894531 1.625 8.429688 1.625 7.964844 C 1.625 7.71875 1.625 7.472656 1.625 7.226562 C 1.625 6.996094 1.625 6.765625 1.625 6.535156 C 1.625 6.449219 1.625 6.367188 1.625 6.28125 C 1.625 5.640625 1.640625 4.984375 1.882812 4.382812 C 1.894531 4.351562 1.90625 4.320312 1.917969 4.289062 C 2.097656 3.84375 2.339844 3.453125 2.65625 3.085938 C 2.675781 3.058594 2.695312 3.035156 2.71875 3.007812 C 3.359375 2.214844 4.414062 1.757812 5.410156 1.648438 C 5.570312 1.636719 5.726562 1.636719 5.886719 1.636719 Z M 3.378906 3.578125 C 2.585938 4.457031 2.492188 5.496094 2.496094 6.628906 C 2.496094 6.710938 2.492188 6.792969 2.492188 6.875 C 2.492188 7.09375 2.492188 7.3125 2.492188 7.53125 C 2.492188 7.671875 2.492188 7.808594 2.492188 7.945312 C 2.492188 8.425781 2.492188 8.90625 2.492188 9.386719 C 2.492188 9.835938 2.492188 10.28125 2.492188 10.730469 C 2.492188 11.113281 2.492188 11.5 2.492188 11.882812 C 2.492188 12.113281 2.492188 12.34375 2.492188 12.570312 C 2.488281 12.789062 2.488281 13.003906 2.492188 13.21875 C 2.492188 13.296875 2.492188 13.375 2.488281 13.457031 C 2.488281 13.828125 2.496094 14.195312 2.535156 14.566406 C 2.539062 14.59375 2.539062 14.621094 2.542969 14.648438 C 2.644531 15.492188 3.121094 16.257812 3.773438 16.789062 C 4.628906 17.445312 5.59375 17.507812 6.628906 17.503906 C 6.710938 17.503906 6.792969 17.507812 6.875 17.507812 C 7.09375 17.507812 7.3125 17.507812 7.53125 17.507812 C 7.671875 17.507812 7.808594 17.507812 7.945312 17.507812 C 8.425781 17.507812 8.90625 17.507812 9.386719 17.507812 C 9.835938 17.507812 10.28125 17.507812 10.730469 17.507812 C 11.113281 17.507812 11.5 17.507812 11.882812 17.507812 C 12.113281 17.507812 12.34375 17.507812 12.570312 17.507812 C 12.789062 17.511719 13.003906 17.511719 13.21875 17.507812 C 13.296875 17.507812 13.375 17.507812 13.457031 17.511719 C 13.828125 17.511719 14.195312 17.503906 14.566406 17.464844 C 14.59375 17.460938 14.621094 17.460938 14.648438 17.457031 C 15.476562 17.355469 16.257812 16.890625 16.769531 16.238281 C 17.429688 15.359375 17.511719 14.410156 17.511719 13.34375 C 17.511719 13.261719 17.511719 13.179688 17.511719 13.101562 C 17.511719 12.882812 17.511719 12.664062 17.511719 12.445312 C 17.511719 12.214844 17.511719 11.984375 17.511719 11.753906 C 17.511719 11.367188 17.511719 10.980469 17.511719 10.59375 C 17.507812 10.148438 17.511719 9.703125 17.511719 9.257812 C 17.511719 8.875 17.511719 8.492188 17.511719 8.105469 C 17.511719 7.878906 17.511719 7.648438 17.511719 7.421875 C 17.511719 7.207031 17.511719 6.992188 17.511719 6.777344 C 17.511719 6.699219 17.511719 6.621094 17.511719 6.542969 C 17.511719 6.171875 17.503906 5.804688 17.464844 5.433594 C 17.460938 5.40625 17.460938 5.378906 17.457031 5.351562 C 17.355469 4.507812 16.878906 3.742188 16.226562 3.210938 C 15.382812 2.558594 14.425781 2.492188 13.402344 2.496094 C 13.320312 2.496094 13.238281 2.492188 13.15625 2.492188 C 12.933594 2.492188 12.710938 2.492188 12.488281 2.492188 C 12.351562 2.492188 12.210938 2.492188 12.074219 2.492188 C 11.585938 2.492188 11.101562 2.492188 10.613281 2.492188 C 10.164062 2.492188 9.710938 2.492188 9.261719 2.492188 C 8.871094 2.492188 8.484375 2.492188 8.09375 2.492188 C 7.863281 2.492188 7.632812 2.492188 7.398438 2.492188 C 7.183594 2.488281 6.964844 2.488281 6.746094 2.492188 C 6.667969 2.492188 6.585938 2.492188 6.507812 2.488281 C 5.316406 2.488281 4.226562 2.679688 3.378906 3.578125 Z M 3.378906 3.578125 "/>
<path style=" stroke:none;fill-rule:nonzero;fill:#b0b0b0;fill-opacity:1;" d="M 7.304688 6.679688 C 7.390625 6.742188 7.390625 6.742188 7.480469 6.824219 C 7.53125 6.875 7.53125 6.875 7.582031 6.921875 C 7.800781 7.132812 8.015625 7.347656 8.230469 7.5625 C 8.277344 7.613281 8.328125 7.660156 8.378906 7.710938 C 8.511719 7.84375 8.640625 7.972656 8.773438 8.105469 C 8.90625 8.238281 9.039062 8.375 9.175781 8.507812 C 9.4375 8.769531 9.699219 9.035156 9.960938 9.296875 C 10.125 9.234375 10.234375 9.109375 10.355469 8.984375 C 10.378906 8.960938 10.40625 8.9375 10.429688 8.914062 C 10.480469 8.863281 10.53125 8.808594 10.582031 8.757812 C 10.664062 8.675781 10.746094 8.59375 10.824219 8.511719 C 11.058594 8.28125 11.289062 8.046875 11.519531 7.8125 C 11.660156 7.671875 11.800781 7.527344 11.941406 7.386719 C 11.996094 7.332031 12.046875 7.277344 12.101562 7.222656 C 12.175781 7.148438 12.253906 7.070312 12.328125 6.996094 C 12.351562 6.972656 12.371094 6.949219 12.394531 6.925781 C 12.550781 6.769531 12.703125 6.65625 12.929688 6.625 C 13.082031 6.644531 13.164062 6.699219 13.28125 6.796875 C 13.367188 6.9375 13.378906 7.042969 13.351562 7.203125 C 13.3125 7.324219 13.261719 7.386719 13.175781 7.480469 C 13.125 7.53125 13.125 7.53125 13.078125 7.582031 C 12.867188 7.800781 12.652344 8.015625 12.4375 8.230469 C 12.386719 8.277344 12.339844 8.328125 12.289062 8.378906 C 12.15625 8.511719 12.027344 8.640625 11.894531 8.773438 C 11.761719 8.90625 11.625 9.039062 11.492188 9.175781 C 11.230469 9.4375 10.964844 9.699219 10.703125 9.960938 C 10.765625 10.125 10.890625 10.234375 11.015625 10.355469 C 11.050781 10.394531 11.050781 10.394531 11.085938 10.429688 C 11.136719 10.480469 11.191406 10.53125 11.242188 10.582031 C 11.324219 10.664062 11.40625 10.746094 11.488281 10.824219 C 11.71875 11.058594 11.953125 11.289062 12.1875 11.519531 C 12.328125 11.660156 12.472656 11.800781 12.613281 11.941406 C 12.667969 11.996094 12.722656 12.046875 12.777344 12.101562 C 12.851562 12.175781 12.929688 12.253906 13.003906 12.328125 C 13.027344 12.351562 13.050781 12.371094 13.074219 12.394531 C 13.230469 12.550781 13.34375 12.703125 13.375 12.929688 C 13.355469 13.082031 13.300781 13.164062 13.203125 13.28125 C 13.0625 13.367188 12.957031 13.378906 12.796875 13.351562 C 12.675781 13.3125 12.613281 13.261719 12.519531 13.175781 C 12.488281 13.144531 12.453125 13.109375 12.417969 13.078125 C 12.199219 12.867188 11.984375 12.652344 11.769531 12.4375 C 11.722656 12.386719 11.671875 12.339844 11.621094 12.289062 C 11.488281 12.15625 11.359375 12.027344 11.226562 11.894531 C 11.09375 11.761719 10.960938 11.625 10.824219 11.492188 C 10.5625 11.230469 10.300781 10.964844 10.039062 10.703125 C 9.875 10.765625 9.765625 10.890625 9.644531 11.015625 C 9.605469 11.050781 9.605469 11.050781 9.570312 11.085938 C 9.519531 11.136719 9.46875 11.191406 9.417969 11.242188 C 9.335938 11.324219 9.253906 11.40625 9.175781 11.488281 C 8.941406 11.71875 8.710938 11.953125 8.480469 12.1875 C 8.339844 12.328125 8.199219 12.472656 8.058594 12.613281 C 8.003906 12.667969 7.953125 12.722656 7.898438 12.777344 C 7.824219 12.851562 7.746094 12.929688 7.671875 13.003906 C 7.648438 13.027344 7.628906 13.050781 7.605469 13.074219 C 7.449219 13.230469 7.296875 13.34375 7.070312 13.375 C 6.917969 13.355469 6.835938 13.300781 6.71875 13.203125 C 6.632812 13.0625 6.621094 12.957031 6.648438 12.796875 C 6.6875 12.675781 6.738281 12.613281 6.824219 12.519531 C 6.855469 12.488281 6.890625 12.453125 6.921875 12.417969 C 7.132812 12.199219 7.347656 11.984375 7.5625 11.769531 C 7.613281 11.722656 7.660156 11.671875 7.710938 11.621094 C 7.84375 11.488281 7.972656 11.359375 8.105469 11.226562 C 8.238281 11.09375 8.375 10.960938 8.507812 10.824219 C 8.769531 10.5625 9.035156 10.300781 9.296875 10.039062 C 9.234375 9.875 9.109375 9.765625 8.984375 9.644531 C 8.960938 9.621094 8.9375 9.59375 8.914062 9.570312 C 8.863281 9.519531 8.808594 9.46875 8.757812 9.417969 C 8.675781 9.335938 8.59375 9.253906 8.511719 9.175781 C 8.28125 8.941406 8.046875 8.710938 7.8125 8.480469 C 7.671875 8.339844 7.527344 8.199219 7.386719 8.058594 C 7.332031 8.003906 7.277344 7.953125 7.222656 7.898438 C 7.148438 7.824219 7.070312 7.746094 6.996094 7.671875 C 6.972656 7.648438 6.949219 7.628906 6.925781 7.605469 C 6.769531 7.449219 6.65625 7.296875 6.625 7.070312 C 6.644531 6.917969 6.699219 6.835938 6.796875 6.71875 C 6.972656 6.613281 7.113281 6.617188 7.304688 6.679688 Z M 7.304688 6.679688 "/>
</g>
</svg>
