<?xml version="1.0" encoding="UTF-8"?>
<svg xmlns="http://www.w3.org/2000/svg" xmlns:xlink="http://www.w3.org/1999/xlink" width="20px" height="20px" viewBox="0 0 20 20" version="1.1">
<g id="surface1">
<path style=" stroke:none;fill-rule:nonzero;fill:#b0b0b0;fill-opacity:1;" d="M 1.105469 8.96875 C 1.136719 8.96875 1.167969 8.96875 1.203125 8.96875 C 1.308594 8.96875 1.410156 8.96875 1.515625 8.96875 C 1.59375 8.96875 1.667969 8.96875 1.746094 8.96875 C 1.953125 8.96875 2.164062 8.96875 2.371094 8.96875 C 2.597656 8.96875 2.824219 8.96875 3.046875 8.96875 C 3.488281 8.96875 3.929688 8.96875 4.371094 8.96875 C 4.730469 8.96875 5.089844 8.96875 5.449219 8.96875 C 5.5 8.96875 5.550781 8.96875 5.601562 8.96875 C 5.707031 8.96875 5.808594 8.96875 5.914062 8.96875 C 6.859375 8.96875 7.804688 8.96875 8.75 8.96875 C 9.609375 8.96875 10.472656 8.96875 11.335938 8.96875 C 12.304688 8.96875 13.273438 8.96875 14.242188 8.96875 C 14.34375 8.96875 14.449219 8.96875 14.550781 8.96875 C 14.628906 8.96875 14.628906 8.96875 14.707031 8.96875 C 15.0625 8.96875 15.421875 8.96875 15.78125 8.96875 C 16.21875 8.96875 16.652344 8.96875 17.089844 8.96875 C 17.3125 8.96875 17.535156 8.96875 17.757812 8.96875 C 17.964844 8.96875 18.167969 8.96875 18.371094 8.96875 C 18.445312 8.96875 18.519531 8.96875 18.59375 8.96875 C 18.691406 8.96875 18.792969 8.96875 18.894531 8.96875 C 18.921875 8.96875 18.949219 8.96875 18.980469 8.96875 C 19.292969 8.972656 19.546875 9.082031 19.773438 9.296875 C 19.996094 9.546875 20.027344 9.8125 20.015625 10.140625 C 19.980469 10.4375 19.84375 10.65625 19.613281 10.847656 C 19.378906 10.988281 19.164062 11.03125 18.894531 11.03125 C 18.863281 11.03125 18.832031 11.03125 18.796875 11.03125 C 18.691406 11.03125 18.589844 11.03125 18.484375 11.03125 C 18.40625 11.03125 18.332031 11.03125 18.253906 11.03125 C 18.046875 11.03125 17.835938 11.03125 17.628906 11.03125 C 17.402344 11.03125 17.175781 11.03125 16.953125 11.03125 C 16.511719 11.03125 16.070312 11.03125 15.628906 11.03125 C 15.269531 11.03125 14.910156 11.03125 14.550781 11.03125 C 14.5 11.03125 14.449219 11.03125 14.398438 11.03125 C 14.292969 11.03125 14.191406 11.03125 14.085938 11.03125 C 13.140625 11.03125 12.195312 11.03125 11.25 11.03125 C 10.390625 11.03125 9.527344 11.03125 8.664062 11.03125 C 7.695312 11.03125 6.726562 11.03125 5.757812 11.03125 C 5.65625 11.03125 5.550781 11.03125 5.449219 11.03125 C 5.371094 11.03125 5.371094 11.03125 5.292969 11.03125 C 4.9375 11.03125 4.578125 11.03125 4.21875 11.03125 C 3.78125 11.03125 3.347656 11.03125 2.910156 11.03125 C 2.6875 11.03125 2.464844 11.03125 2.242188 11.03125 C 2.035156 11.03125 1.832031 11.03125 1.628906 11.03125 C 1.554688 11.03125 1.480469 11.03125 1.40625 11.03125 C 1.308594 11.03125 1.207031 11.03125 1.105469 11.03125 C 1.0625 11.03125 1.0625 11.03125 1.019531 11.03125 C 0.707031 11.027344 0.453125 10.917969 0.226562 10.703125 C 0.00390625 10.453125 -0.0273438 10.1875 -0.015625 9.859375 C 0.0195312 9.5625 0.15625 9.34375 0.386719 9.152344 C 0.621094 9.011719 0.835938 8.96875 1.105469 8.96875 Z M 1.105469 8.96875 "/>
<path style=" stroke:none;fill-rule:nonzero;fill:#b0b0b0;fill-opacity:1;" d="M 6.402344 2.953125 C 6.457031 2.953125 6.511719 2.953125 6.566406 2.953125 C 6.71875 2.953125 6.867188 2.953125 7.019531 2.953125 C 7.179688 2.953125 7.34375 2.953125 7.503906 2.953125 C 7.820312 2.953125 8.136719 2.953125 8.457031 2.953125 C 8.710938 2.953125 8.96875 2.953125 9.226562 2.953125 C 9.265625 2.953125 9.300781 2.953125 9.339844 2.953125 C 9.414062 2.953125 9.488281 2.953125 9.5625 2.953125 C 10.261719 2.953125 10.960938 2.953125 11.660156 2.953125 C 12.261719 2.953125 12.859375 2.953125 13.460938 2.953125 C 14.15625 2.953125 14.851562 2.953125 15.546875 2.953125 C 15.625 2.953125 15.699219 2.953125 15.773438 2.953125 C 15.828125 2.953125 15.828125 2.953125 15.882812 2.953125 C 16.140625 2.953125 16.398438 2.953125 16.65625 2.953125 C 16.96875 2.953125 17.28125 2.953125 17.597656 2.953125 C 17.753906 2.953125 17.914062 2.953125 18.074219 2.953125 C 18.222656 2.953125 18.367188 2.953125 18.515625 2.953125 C 18.59375 2.953125 18.671875 2.953125 18.75 2.953125 C 19.128906 2.957031 19.480469 3.003906 19.765625 3.28125 C 20.007812 3.601562 20.027344 3.902344 20 4.296875 C 19.9375 4.574219 19.714844 4.761719 19.492188 4.921875 C 19.34375 4.992188 19.226562 5.011719 19.0625 5.011719 C 19.015625 5.011719 18.964844 5.011719 18.917969 5.011719 C 18.863281 5.011719 18.8125 5.011719 18.757812 5.011719 C 18.703125 5.011719 18.648438 5.011719 18.589844 5.011719 C 18.4375 5.011719 18.285156 5.011719 18.128906 5.011719 C 17.964844 5.011719 17.796875 5.011719 17.632812 5.011719 C 17.304688 5.011719 16.980469 5.011719 16.65625 5.011719 C 16.390625 5.011719 16.125 5.011719 15.863281 5.011719 C 15.113281 5.015625 14.363281 5.015625 13.613281 5.015625 C 13.574219 5.015625 13.53125 5.015625 13.492188 5.015625 C 13.449219 5.015625 13.410156 5.015625 13.367188 5.015625 C 12.714844 5.015625 12.058594 5.015625 11.402344 5.015625 C 10.726562 5.015625 10.054688 5.019531 9.382812 5.019531 C 9.003906 5.019531 8.625 5.019531 8.246094 5.019531 C 7.925781 5.019531 7.605469 5.019531 7.28125 5.019531 C 7.117188 5.019531 6.953125 5.019531 6.789062 5.019531 C 6.640625 5.019531 6.488281 5.019531 6.339844 5.019531 C 6.285156 5.019531 6.230469 5.019531 6.175781 5.019531 C 5.824219 5.023438 5.589844 4.996094 5.304688 4.777344 C 5.0625 4.535156 4.992188 4.355469 4.980469 4.011719 C 4.988281 3.703125 5.046875 3.472656 5.265625 3.25 C 5.605469 2.96875 5.976562 2.953125 6.402344 2.953125 Z M 6.402344 2.953125 "/>
<path style=" stroke:none;fill-rule:nonzero;fill:#b0b0b0;fill-opacity:1;" d="M 10.128906 14.980469 C 10.1875 14.980469 10.1875 14.980469 10.25 14.980469 C 10.378906 14.980469 10.507812 14.980469 10.640625 14.980469 C 10.734375 14.980469 10.828125 14.980469 10.921875 14.980469 C 11.148438 14.976562 11.378906 14.976562 11.605469 14.980469 C 11.789062 14.980469 11.976562 14.980469 12.160156 14.980469 C 12.199219 14.980469 12.199219 14.980469 12.242188 14.980469 C 12.296875 14.980469 12.347656 14.980469 12.402344 14.980469 C 12.90625 14.976562 13.40625 14.980469 13.910156 14.980469 C 14.339844 14.980469 14.773438 14.980469 15.203125 14.980469 C 15.703125 14.980469 16.207031 14.976562 16.707031 14.980469 C 16.761719 14.980469 16.8125 14.980469 16.867188 14.980469 C 16.90625 14.980469 16.90625 14.980469 16.945312 14.980469 C 17.132812 14.980469 17.316406 14.980469 17.503906 14.980469 C 17.75 14.976562 18 14.980469 18.25 14.980469 C 18.339844 14.980469 18.433594 14.980469 18.523438 14.980469 C 18.648438 14.980469 18.773438 14.980469 18.898438 14.980469 C 18.953125 14.980469 18.953125 14.980469 19.007812 14.980469 C 19.304688 14.984375 19.546875 15.070312 19.757812 15.285156 C 20.007812 15.554688 20.023438 15.789062 20.015625 16.148438 C 19.984375 16.433594 19.867188 16.613281 19.648438 16.796875 C 19.355469 17.007812 19.125 17.035156 18.769531 17.035156 C 18.730469 17.035156 18.691406 17.035156 18.652344 17.035156 C 18.527344 17.039062 18.402344 17.039062 18.273438 17.039062 C 18.183594 17.039062 18.09375 17.039062 18.003906 17.039062 C 17.757812 17.039062 17.511719 17.039062 17.265625 17.039062 C 17.109375 17.039062 16.957031 17.039062 16.800781 17.039062 C 16.375 17.039062 15.949219 17.039062 15.523438 17.039062 C 15.496094 17.039062 15.46875 17.039062 15.441406 17.039062 C 15.414062 17.039062 15.386719 17.039062 15.359375 17.039062 C 15.304688 17.039062 15.246094 17.039062 15.191406 17.039062 C 15.152344 17.039062 15.152344 17.039062 15.109375 17.039062 C 14.664062 17.039062 14.21875 17.042969 13.773438 17.042969 C 13.316406 17.042969 12.859375 17.042969 12.402344 17.042969 C 12.144531 17.042969 11.890625 17.042969 11.632812 17.042969 C 11.390625 17.046875 11.148438 17.046875 10.910156 17.046875 C 10.820312 17.046875 10.730469 17.046875 10.644531 17.046875 C 10.523438 17.046875 10.402344 17.046875 10.28125 17.046875 C 10.246094 17.046875 10.210938 17.046875 10.175781 17.046875 C 9.796875 17.042969 9.488281 16.957031 9.214844 16.691406 C 9.015625 16.453125 8.957031 16.191406 8.972656 15.882812 C 9.007812 15.585938 9.140625 15.34375 9.375 15.15625 C 9.625 15.011719 9.84375 14.976562 10.128906 14.980469 Z M 10.128906 14.980469 "/>
</g>
</svg>
