<?xml version="1.0" encoding="UTF-8"?>
<svg xmlns="http://www.w3.org/2000/svg" xmlns:xlink="http://www.w3.org/1999/xlink" width="20px" height="20px" viewBox="0 0 20 20" version="1.1">
<g id="surface1">
<path style=" stroke:none;fill-rule:nonzero;fill:rgb(100%,100%,100%);fill-opacity:1;" d="M 10.605469 1.820312 C 10.945312 2.0625 11.152344 2.40625 11.25 2.8125 C 11.273438 3.042969 11.265625 3.273438 11.257812 3.507812 C 11.257812 3.5625 11.257812 3.628906 11.257812 3.691406 C 11.253906 3.835938 11.253906 3.988281 11.25 4.140625 C 11.269531 4.132812 11.292969 4.121094 11.3125 4.109375 C 11.414062 4.0625 11.515625 4.015625 11.609375 3.964844 C 11.660156 3.941406 11.660156 3.941406 11.714844 3.914062 C 11.75 3.902344 11.78125 3.886719 11.816406 3.871094 C 11.84375 3.859375 11.875 3.84375 11.90625 3.828125 C 12.246094 3.679688 12.738281 3.695312 13.085938 3.808594 C 13.539062 4.007812 13.835938 4.339844 14.023438 4.789062 C 14.09375 5.015625 14.085938 5.230469 14.082031 5.464844 C 14.082031 5.511719 14.082031 5.5625 14.082031 5.617188 C 14.082031 5.742188 14.078125 5.875 14.078125 6.007812 C 14.070312 6.136719 14.070312 6.269531 14.070312 6.40625 C 14.070312 6.664062 14.066406 6.929688 14.0625 7.1875 C 14.09375 7.1875 14.117188 7.1875 14.144531 7.1875 C 14.410156 7.183594 14.671875 7.179688 14.929688 7.179688 C 15.070312 7.179688 15.203125 7.171875 15.335938 7.171875 C 16.109375 7.15625 16.722656 7.152344 17.34375 7.65625 C 17.378906 7.679688 17.40625 7.703125 17.441406 7.730469 C 17.789062 8.023438 18.042969 8.5 18.125 8.945312 C 18.132812 9.121094 18.132812 9.296875 18.132812 9.476562 C 18.132812 9.550781 18.132812 9.550781 18.128906 9.628906 C 18.128906 9.765625 18.128906 9.898438 18.128906 10.035156 C 18.128906 10.171875 18.128906 10.308594 18.128906 10.445312 C 18.128906 10.710938 18.125 10.980469 18.125 11.25 C 18.148438 11.25 18.171875 11.25 18.199219 11.25 C 18.226562 11.25 18.261719 11.25 18.296875 11.25 C 18.324219 11.25 18.355469 11.25 18.390625 11.25 C 18.765625 11.257812 19.085938 11.5 19.335938 11.761719 C 19.625 12.105469 19.710938 12.476562 19.707031 12.914062 C 19.707031 12.960938 19.707031 13 19.707031 13.042969 C 19.707031 13.128906 19.707031 13.21875 19.707031 13.304688 C 19.707031 13.4375 19.707031 13.570312 19.707031 13.703125 C 19.707031 13.789062 19.707031 13.871094 19.707031 13.960938 C 19.707031 14 19.707031 14.039062 19.707031 14.078125 C 19.703125 14.515625 19.5625 14.878906 19.257812 15.195312 C 18.984375 15.453125 18.675781 15.628906 18.296875 15.625 C 18.261719 15.625 18.234375 15.625 18.199219 15.625 C 18.171875 15.625 18.148438 15.625 18.125 15.625 C 18.125 15.65625 18.125 15.679688 18.125 15.707031 C 18.128906 15.972656 18.128906 16.242188 18.132812 16.503906 C 18.132812 16.636719 18.132812 16.773438 18.132812 16.910156 C 18.140625 17.066406 18.140625 17.222656 18.140625 17.378906 C 18.140625 17.425781 18.140625 17.476562 18.144531 17.523438 C 18.144531 18.078125 17.949219 18.628906 17.570312 19.039062 C 17.171875 19.40625 16.664062 19.695312 16.113281 19.695312 C 16.058594 19.695312 16.011719 19.695312 15.960938 19.695312 C 15.902344 19.695312 15.851562 19.695312 15.796875 19.695312 C 15.738281 19.695312 15.679688 19.695312 15.621094 19.695312 C 15.460938 19.695312 15.292969 19.695312 15.132812 19.695312 C 14.960938 19.695312 14.785156 19.695312 14.609375 19.695312 C 14.265625 19.703125 13.925781 19.703125 13.589844 19.703125 C 13.3125 19.703125 13.03125 19.703125 12.753906 19.703125 C 11.96875 19.703125 11.179688 19.703125 10.390625 19.703125 C 10.328125 19.703125 10.328125 19.703125 10.265625 19.703125 C 10.21875 19.703125 10.179688 19.703125 10.136719 19.703125 C 9.449219 19.703125 8.757812 19.703125 8.070312 19.703125 C 7.363281 19.707031 6.65625 19.707031 5.945312 19.707031 C 5.550781 19.707031 5.15625 19.707031 4.761719 19.707031 C 4.417969 19.707031 4.082031 19.707031 3.746094 19.707031 C 3.574219 19.707031 3.402344 19.707031 3.226562 19.707031 C 3.070312 19.707031 2.914062 19.707031 2.753906 19.707031 C 2.699219 19.707031 2.640625 19.707031 2.582031 19.707031 C 1.988281 19.710938 1.410156 19.546875 0.960938 19.132812 C 0.550781 18.6875 0.296875 18.167969 0.304688 17.558594 C 0.304688 17.523438 0.304688 17.484375 0.304688 17.453125 C 0.304688 17.328125 0.304688 17.207031 0.304688 17.085938 C 0.296875 16.996094 0.296875 16.910156 0.296875 16.820312 C 0.296875 16.582031 0.296875 16.34375 0.296875 16.109375 C 0.296875 15.957031 0.296875 15.8125 0.296875 15.660156 C 0.296875 15.25 0.296875 14.835938 0.296875 14.421875 C 0.296875 14.394531 0.296875 14.371094 0.296875 14.34375 C 0.296875 14.292969 0.296875 14.238281 0.296875 14.183594 C 0.296875 14.15625 0.296875 14.132812 0.296875 14.101562 C 0.296875 14.078125 0.296875 14.046875 0.296875 14.023438 C 0.296875 13.59375 0.292969 13.164062 0.292969 12.734375 C 0.292969 12.289062 0.292969 11.851562 0.292969 11.40625 C 0.292969 11.15625 0.292969 10.914062 0.289062 10.664062 C 0.289062 10.429688 0.289062 10.195312 0.289062 9.960938 C 0.289062 9.878906 0.289062 9.789062 0.289062 9.707031 C 0.28125 9.039062 0.347656 8.507812 0.78125 7.96875 C 0.804688 7.933594 0.828125 7.90625 0.855469 7.871094 C 1.15625 7.515625 1.621094 7.296875 2.070312 7.1875 C 2.167969 7.1875 2.265625 7.191406 2.363281 7.191406 C 2.679688 7.1875 2.835938 7.066406 3.046875 6.84375 C 3.089844 6.796875 3.132812 6.753906 3.179688 6.703125 C 3.265625 6.617188 3.359375 6.539062 3.457031 6.464844 C 3.625 6.332031 3.773438 6.195312 3.925781 6.054688 C 4.078125 5.914062 4.226562 5.777344 4.390625 5.644531 C 4.566406 5.507812 4.722656 5.367188 4.882812 5.214844 C 5.074219 5.035156 5.273438 4.863281 5.476562 4.695312 C 5.601562 4.59375 5.722656 4.488281 5.839844 4.375 C 6.023438 4.199219 6.214844 4.039062 6.414062 3.882812 C 6.539062 3.773438 6.660156 3.667969 6.777344 3.554688 C 6.960938 3.378906 7.152344 3.21875 7.351562 3.0625 C 7.476562 2.953125 7.597656 2.847656 7.714844 2.734375 C 7.898438 2.558594 8.09375 2.390625 8.296875 2.230469 C 8.398438 2.148438 8.496094 2.054688 8.59375 1.960938 C 9.171875 1.441406 9.960938 1.414062 10.605469 1.820312 Z M 8.792969 2.699219 C 8.6875 2.804688 8.574219 2.894531 8.457031 2.988281 C 8.273438 3.132812 8.09375 3.296875 7.925781 3.457031 C 7.757812 3.613281 7.585938 3.753906 7.414062 3.890625 C 7.289062 4 7.167969 4.105469 7.050781 4.21875 C 6.898438 4.359375 6.742188 4.496094 6.582031 4.628906 C 6.371094 4.800781 6.171875 4.980469 5.976562 5.164062 C 5.796875 5.332031 5.609375 5.492188 5.421875 5.65625 C 5.375 5.695312 5.328125 5.734375 5.277344 5.773438 C 5.257812 5.796875 5.234375 5.816406 5.210938 5.835938 C 5.0625 5.960938 4.921875 6.089844 4.773438 6.21875 C 4.640625 6.34375 4.5 6.464844 4.355469 6.582031 C 4.132812 6.761719 3.914062 6.949219 3.710938 7.148438 C 3.710938 7.164062 3.710938 7.171875 3.710938 7.1875 C 4.773438 7.269531 5.539062 7.148438 6.480469 6.644531 C 6.621094 6.566406 6.773438 6.488281 6.917969 6.414062 C 7.195312 6.273438 7.46875 6.132812 7.742188 5.984375 C 8.054688 5.820312 8.375 5.660156 8.691406 5.5 C 9.335938 5.164062 9.980469 4.828125 10.625 4.492188 C 10.625 4.3125 10.628906 4.125 10.628906 3.945312 C 10.628906 3.886719 10.628906 3.824219 10.628906 3.757812 C 10.65625 3.050781 10.65625 3.050781 10.3125 2.460938 C 10.074219 2.257812 9.882812 2.210938 9.570312 2.21875 C 9.234375 2.246094 9.027344 2.476562 8.792969 2.699219 Z M 11.890625 4.578125 C 11.851562 4.59375 11.816406 4.613281 11.777344 4.632812 C 11.6875 4.679688 11.605469 4.722656 11.519531 4.765625 C 11.347656 4.851562 11.175781 4.941406 11 5.023438 C 10.722656 5.164062 10.445312 5.304688 10.164062 5.445312 C 10.113281 5.46875 10.113281 5.46875 10.058594 5.5 C 9.945312 5.550781 9.839844 5.609375 9.726562 5.664062 C 9.4375 5.8125 9.148438 5.953125 8.859375 6.097656 C 8.824219 6.117188 8.789062 6.132812 8.753906 6.152344 C 8.261719 6.398438 7.769531 6.640625 7.269531 6.875 C 7.085938 6.960938 6.898438 7.054688 6.71875 7.148438 C 6.71875 7.164062 6.71875 7.171875 6.71875 7.1875 C 8.9375 7.1875 11.152344 7.1875 13.4375 7.1875 C 13.570312 6.054688 13.570312 6.054688 13.203125 4.6875 C 12.78125 4.351562 12.363281 4.328125 11.890625 4.578125 Z M 1.289062 8.398438 C 0.992188 8.804688 0.933594 9.226562 0.933594 9.71875 C 0.933594 9.75 0.933594 9.785156 0.933594 9.820312 C 0.933594 9.925781 0.933594 10.039062 0.933594 10.148438 C 0.933594 10.230469 0.933594 10.308594 0.933594 10.386719 C 0.933594 10.601562 0.933594 10.816406 0.933594 11.03125 C 0.933594 11.167969 0.933594 11.296875 0.933594 11.4375 C 0.933594 11.90625 0.933594 12.375 0.933594 12.84375 C 0.933594 13.28125 0.929688 13.714844 0.929688 14.15625 C 0.929688 14.53125 0.929688 14.90625 0.929688 15.28125 C 0.929688 15.507812 0.929688 15.734375 0.929688 15.957031 C 0.929688 16.167969 0.929688 16.375 0.929688 16.585938 C 0.929688 16.664062 0.929688 16.742188 0.929688 16.820312 C 0.929688 17.503906 0.941406 18.101562 1.4375 18.632812 C 1.90625 19.058594 2.445312 19.066406 3.046875 19.066406 C 3.101562 19.066406 3.15625 19.066406 3.210938 19.066406 C 3.363281 19.066406 3.515625 19.066406 3.667969 19.066406 C 3.828125 19.066406 3.992188 19.066406 4.15625 19.066406 C 4.476562 19.066406 4.800781 19.066406 5.117188 19.066406 C 5.382812 19.066406 5.640625 19.066406 5.898438 19.066406 C 6.640625 19.066406 7.378906 19.066406 8.121094 19.066406 C 8.160156 19.066406 8.199219 19.066406 8.238281 19.066406 C 8.300781 19.066406 8.300781 19.066406 8.359375 19.066406 C 9.003906 19.066406 9.652344 19.070312 10.296875 19.070312 C 10.960938 19.070312 11.625 19.070312 12.289062 19.070312 C 12.664062 19.070312 13.039062 19.070312 13.40625 19.070312 C 13.726562 19.070312 14.042969 19.070312 14.359375 19.070312 C 14.523438 19.070312 14.683594 19.070312 14.84375 19.070312 C 14.996094 19.070312 15.140625 19.070312 15.292969 19.070312 C 15.371094 19.070312 15.449219 19.070312 15.527344 19.070312 C 16.128906 19.070312 16.617188 18.988281 17.070312 18.5625 C 17.464844 18.128906 17.503906 17.621094 17.503906 17.0625 C 17.503906 17.015625 17.503906 16.976562 17.503906 16.933594 C 17.503906 16.800781 17.503906 16.675781 17.5 16.542969 C 17.5 16.453125 17.5 16.367188 17.5 16.273438 C 17.5 16.058594 17.5 15.839844 17.5 15.625 C 17.457031 15.625 17.414062 15.625 17.367188 15.625 C 16.960938 15.625 16.554688 15.621094 16.148438 15.621094 C 15.9375 15.617188 15.726562 15.617188 15.515625 15.617188 C 15.316406 15.617188 15.113281 15.609375 14.914062 15.609375 C 14.835938 15.609375 14.757812 15.609375 14.683594 15.609375 C 14.148438 15.609375 13.6875 15.601562 13.28125 15.210938 C 12.886719 14.734375 12.832031 14.132812 12.832031 13.535156 C 12.832031 13.445312 12.832031 13.355469 12.832031 13.265625 C 12.828125 12.679688 12.910156 12.09375 13.3125 11.640625 C 13.730469 11.234375 14.253906 11.265625 14.796875 11.265625 C 14.875 11.265625 14.953125 11.265625 15.03125 11.265625 C 15.234375 11.257812 15.4375 11.257812 15.644531 11.257812 C 15.855469 11.257812 16.0625 11.257812 16.269531 11.253906 C 16.679688 11.253906 17.089844 11.25 17.5 11.25 C 17.5 10.992188 17.503906 10.734375 17.503906 10.472656 C 17.503906 10.386719 17.503906 10.296875 17.503906 10.210938 C 17.503906 10.082031 17.503906 9.957031 17.507812 9.828125 C 17.507812 9.789062 17.507812 9.757812 17.507812 9.710938 C 17.507812 9.140625 17.402344 8.671875 17 8.242188 C 16.53125 7.816406 15.992188 7.808594 15.390625 7.808594 C 15.335938 7.808594 15.28125 7.808594 15.226562 7.808594 C 15.074219 7.808594 14.921875 7.808594 14.769531 7.808594 C 14.609375 7.808594 14.445312 7.808594 14.28125 7.808594 C 13.960938 7.808594 13.636719 7.808594 13.320312 7.808594 C 13.054688 7.808594 12.796875 7.808594 12.539062 7.808594 C 11.796875 7.808594 11.058594 7.808594 10.316406 7.808594 C 10.277344 7.808594 10.238281 7.808594 10.199219 7.808594 C 10.136719 7.808594 10.136719 7.808594 10.078125 7.808594 C 9.433594 7.808594 8.785156 7.804688 8.140625 7.804688 C 7.476562 7.804688 6.8125 7.804688 6.148438 7.804688 C 5.773438 7.804688 5.398438 7.804688 5.03125 7.804688 C 4.710938 7.804688 4.394531 7.804688 4.078125 7.804688 C 3.914062 7.804688 3.753906 7.804688 3.59375 7.804688 C 3.441406 7.804688 3.296875 7.804688 3.144531 7.804688 C 3.066406 7.804688 2.988281 7.804688 2.910156 7.804688 C 2.265625 7.804688 1.738281 7.90625 1.289062 8.398438 Z M 13.75 12.109375 C 13.476562 12.492188 13.460938 12.898438 13.460938 13.351562 C 13.460938 13.433594 13.460938 13.515625 13.460938 13.597656 C 13.460938 14.023438 13.496094 14.46875 13.789062 14.804688 C 14.054688 15.023438 14.382812 15.003906 14.707031 15.003906 C 14.746094 15.003906 14.78125 15.003906 14.820312 15.003906 C 14.941406 15.003906 15.058594 15.003906 15.179688 15.003906 C 15.265625 15.003906 15.347656 15.003906 15.429688 15.003906 C 15.605469 15.003906 15.78125 15.003906 15.957031 15.003906 C 16.179688 15.003906 16.40625 15.007812 16.625 15.007812 C 16.800781 15.007812 16.972656 15.007812 17.148438 15.007812 C 17.230469 15.007812 17.308594 15.007812 17.390625 15.007812 C 17.507812 15.007812 17.625 15.007812 17.738281 15.007812 C 17.773438 15.007812 17.808594 15.007812 17.84375 15.007812 C 18.203125 15.007812 18.511719 14.964844 18.773438 14.703125 C 19.085938 14.355469 19.066406 13.976562 19.066406 13.53125 C 19.066406 13.445312 19.070312 13.359375 19.070312 13.277344 C 19.078125 12.714844 19.078125 12.714844 18.828125 12.226562 C 18.507812 11.910156 18.195312 11.871094 17.753906 11.871094 C 17.71875 11.871094 17.6875 11.871094 17.648438 11.871094 C 17.523438 11.871094 17.40625 11.871094 17.285156 11.871094 C 17.203125 11.871094 17.117188 11.871094 17.035156 11.871094 C 16.859375 11.871094 16.683594 11.871094 16.507812 11.871094 C 16.285156 11.871094 16.058594 11.867188 15.835938 11.867188 C 15.664062 11.867188 15.488281 11.867188 15.316406 11.867188 C 15.234375 11.867188 15.152344 11.867188 15.070312 11.867188 C 14.953125 11.867188 14.835938 11.867188 14.722656 11.867188 C 14.6875 11.867188 14.652344 11.867188 14.617188 11.867188 C 14.300781 11.867188 13.992188 11.894531 13.75 12.109375 Z M 13.75 12.109375 "/>
<path style=" stroke:none;fill-rule:nonzero;fill:rgb(100%,100%,100%);fill-opacity:1;" d="M 17.855469 0.359375 C 18.257812 0.601562 18.523438 1.09375 18.792969 1.464844 C 18.890625 1.597656 18.988281 1.726562 19.085938 1.859375 C 19.15625 1.953125 19.222656 2.046875 19.292969 2.144531 C 19.367188 2.234375 19.433594 2.328125 19.507812 2.425781 C 19.65625 2.617188 19.722656 2.753906 19.703125 3 C 19.671875 3.164062 19.605469 3.246094 19.488281 3.363281 C 19.335938 3.460938 19.226562 3.457031 19.054688 3.445312 C 19.023438 3.445312 18.992188 3.445312 18.964844 3.445312 C 18.890625 3.441406 18.824219 3.441406 18.75 3.4375 C 18.75 3.46875 18.75 3.492188 18.75 3.519531 C 18.691406 4.710938 18.09375 5.699219 17.246094 6.492188 C 16.789062 6.898438 16.789062 6.898438 16.492188 6.894531 C 16.320312 6.855469 16.191406 6.738281 16.054688 6.632812 C 16.019531 6.605469 15.992188 6.582031 15.957031 6.558594 C 15.894531 6.503906 15.824219 6.453125 15.761719 6.402344 C 15.667969 6.332031 15.570312 6.257812 15.476562 6.191406 C 15.449219 6.167969 15.421875 6.148438 15.390625 6.128906 C 15.335938 6.085938 15.28125 6.046875 15.226562 6.007812 C 15.042969 5.867188 15.042969 5.867188 15 5.78125 C 14.96875 5.507812 14.96875 5.507812 15.078125 5.367188 C 15.230469 5.25 15.386719 5.140625 15.546875 5.039062 C 15.902344 4.800781 16.128906 4.359375 16.210938 3.945312 C 16.21875 3.859375 16.226562 3.769531 16.230469 3.679688 C 16.234375 3.636719 16.242188 3.589844 16.246094 3.546875 C 16.246094 3.492188 16.246094 3.492188 16.25 3.4375 C 16.207031 3.441406 16.167969 3.441406 16.125 3.445312 C 15.617188 3.46875 15.617188 3.46875 15.449219 3.324219 C 15.332031 3.199219 15.304688 3.101562 15.292969 2.929688 C 15.292969 2.890625 15.292969 2.855469 15.289062 2.820312 C 15.328125 2.632812 15.433594 2.5 15.546875 2.34375 C 15.566406 2.3125 15.585938 2.289062 15.605469 2.261719 C 15.667969 2.171875 15.734375 2.085938 15.796875 2 C 15.828125 1.953125 15.828125 1.953125 15.863281 1.910156 C 16.125 1.558594 16.386719 1.214844 16.648438 0.875 C 16.695312 0.8125 16.738281 0.75 16.78125 0.695312 C 16.804688 0.664062 16.828125 0.632812 16.84375 0.605469 C 16.867188 0.582031 16.878906 0.554688 16.898438 0.53125 C 17.128906 0.265625 17.542969 0.234375 17.855469 0.359375 Z M 17.34375 1.050781 C 17.3125 1.085938 17.289062 1.125 17.261719 1.15625 C 17.230469 1.195312 17.195312 1.234375 17.167969 1.28125 C 17.054688 1.421875 16.949219 1.570312 16.84375 1.722656 C 16.65625 1.988281 16.453125 2.246094 16.253906 2.503906 C 16.230469 2.539062 16.207031 2.574219 16.175781 2.609375 C 16.152344 2.640625 16.128906 2.671875 16.101562 2.699219 C 16.050781 2.765625 16.050781 2.765625 16.054688 2.8125 C 16.125 2.8125 16.125 2.8125 16.195312 2.816406 C 16.253906 2.816406 16.320312 2.820312 16.375 2.820312 C 16.425781 2.828125 16.425781 2.828125 16.476562 2.828125 C 16.503906 2.828125 16.53125 2.832031 16.5625 2.832031 C 16.601562 2.832031 16.601562 2.832031 16.644531 2.835938 C 16.742188 2.855469 16.777344 2.890625 16.835938 2.96875 C 17.027344 3.496094 16.875 4.210938 16.660156 4.695312 C 16.476562 5.082031 16.195312 5.367188 15.898438 5.664062 C 15.996094 5.746094 16.097656 5.824219 16.203125 5.902344 C 16.226562 5.929688 16.253906 5.945312 16.285156 5.972656 C 16.363281 6.035156 16.4375 6.089844 16.523438 6.132812 C 16.882812 6.078125 17.1875 5.625 17.390625 5.347656 C 17.820312 4.75 18.046875 4.105469 18.101562 3.375 C 18.117188 3.203125 18.132812 3.050781 18.203125 2.890625 C 18.324219 2.828125 18.460938 2.835938 18.597656 2.832031 C 18.628906 2.828125 18.65625 2.828125 18.6875 2.820312 C 18.757812 2.820312 18.832031 2.816406 18.90625 2.8125 C 18.851562 2.699219 18.792969 2.601562 18.71875 2.503906 C 18.695312 2.476562 18.675781 2.445312 18.652344 2.417969 C 18.632812 2.382812 18.609375 2.351562 18.585938 2.324219 C 18.535156 2.257812 18.484375 2.1875 18.4375 2.125 C 18.40625 2.089844 18.382812 2.054688 18.359375 2.015625 C 18.28125 1.914062 18.203125 1.8125 18.128906 1.710938 C 18.105469 1.675781 18.082031 1.640625 18.054688 1.605469 C 18.007812 1.542969 17.964844 1.480469 17.914062 1.414062 C 17.871094 1.359375 17.832031 1.304688 17.789062 1.246094 C 17.742188 1.179688 17.695312 1.117188 17.652344 1.054688 C 17.625 1.03125 17.601562 1 17.578125 0.976562 C 17.421875 0.957031 17.421875 0.957031 17.34375 1.050781 Z M 17.34375 1.050781 "/>
<path style=" stroke:none;fill-rule:nonzero;fill:rgb(100%,100%,100%);fill-opacity:1;" d="M 15.933594 12.296875 C 16.257812 12.492188 16.460938 12.757812 16.5625 13.125 C 16.601562 13.558594 16.578125 13.9375 16.296875 14.289062 C 16.078125 14.527344 15.800781 14.671875 15.476562 14.703125 C 15.175781 14.707031 14.914062 14.703125 14.648438 14.53125 C 14.617188 14.515625 14.59375 14.496094 14.566406 14.476562 C 14.296875 14.296875 14.148438 14.0625 14.0625 13.75 C 14.023438 13.316406 14.046875 12.9375 14.328125 12.585938 C 14.726562 12.152344 15.398438 12.039062 15.933594 12.296875 Z M 14.789062 13.109375 C 14.703125 13.289062 14.695312 13.4375 14.726562 13.632812 C 14.820312 13.824219 14.925781 13.929688 15.117188 14.023438 C 15.3125 14.054688 15.460938 14.046875 15.640625 13.960938 C 15.78125 13.832031 15.882812 13.730469 15.914062 13.539062 C 15.921875 13.316406 15.894531 13.179688 15.742188 13.007812 C 15.570312 12.855469 15.433594 12.828125 15.210938 12.835938 C 15.019531 12.867188 14.917969 12.96875 14.789062 13.109375 Z M 14.789062 13.109375 "/>
</g>
</svg>
